<?xml version="1.0" encoding="utf-8"?>
<!-- Generator: Adobe Illustrator 16.0.0, SVG Export Plug-In . SVG Version: 6.00 Build 0)  -->
<!DOCTYPE svg PUBLIC "-//W3C//DTD SVG 1.1//EN" "http://www.w3.org/Graphics/SVG/1.1/DTD/svg11.dtd">
<svg version="1.1" id="Layer_1" xmlns="http://www.w3.org/2000/svg" xmlns:xlink="http://www.w3.org/1999/xlink" x="0px" y="0px"
	 width="497.987px" height="93.885px" viewBox="0 0 497.987 93.885" enable-background="new 0 0 497.987 93.885"
	 xml:space="preserve">
<g id="_x31_">
	<g>
		<path fill="#7AC5E2" d="M435.411,79.837c0.433,0,0.805,0.156,1.113,0.466c0.311,0.311,0.467,0.681,0.467,1.114
			c0,0.432-0.156,0.804-0.467,1.114c-0.309,0.31-0.681,0.465-1.113,0.465c-0.432,0-0.803-0.155-1.113-0.465
			c-0.311-0.311-0.465-0.683-0.465-1.114c0-0.434,0.154-0.804,0.465-1.114C434.608,79.993,434.979,79.837,435.411,79.837z"/>
		<path fill="#7AC5E2" d="M449.839,60.761c1.529,0,2.97,0.291,4.326,0.875c1.355,0.585,2.535,1.378,3.537,2.38
			c1.001,1.003,1.794,2.181,2.379,3.536c0.584,1.355,0.875,2.798,0.875,4.326c0,1.543-0.291,2.989-0.875,4.337
			c-0.585,1.349-1.378,2.524-2.379,3.526c-1.002,1.002-2.182,1.795-3.537,2.379c-1.356,0.584-2.797,0.876-4.326,0.876
			c-1.543,0-2.988-0.292-4.336-0.876s-2.525-1.377-3.526-2.379c-1.003-1.002-1.796-2.178-2.38-3.526
			c-0.584-1.348-0.875-2.794-0.875-4.337c0-1.528,0.291-2.971,0.875-4.326s1.377-2.533,2.38-3.536
			c1.001-1.002,2.179-1.795,3.526-2.38C446.851,61.052,448.296,60.761,449.839,60.761z M458.665,71.878
			c0-1.211-0.23-2.354-0.693-3.428c-0.461-1.074-1.093-2.012-1.893-2.812c-0.801-0.801-1.738-1.432-2.812-1.893
			s-2.217-0.692-3.429-0.692c-1.211,0-2.354,0.231-3.428,0.692c-1.074,0.461-2.012,1.092-2.813,1.893
			c-0.8,0.801-1.431,1.738-1.892,2.812s-0.691,2.217-0.691,3.428s0.23,2.354,0.691,3.429s1.092,2.011,1.892,2.812
			c0.802,0.801,1.739,1.432,2.813,1.893c1.073,0.462,2.217,0.692,3.428,0.692c1.212,0,2.355-0.23,3.429-0.692
			c1.073-0.461,2.011-1.092,2.812-1.893c0.8-0.801,1.432-1.737,1.893-2.812C458.435,74.232,458.665,73.089,458.665,71.878z"/>
		<path fill="#7AC5E2" d="M465.046,61.007v3.977c0.359-0.506,0.767-0.949,1.221-1.331c0.455-0.382,0.923-0.714,1.406-0.995
			c0.482-0.28,0.978-0.52,1.481-0.714c0.505-0.194,0.987-0.356,1.449-0.486c1.095-0.288,2.214-0.392,3.354-0.45v2.223
			c-1.083,0-2.049,0.174-2.899,0.434s-1.607,0.598-2.27,1.017c-0.665,0.419-1.231,0.896-1.698,1.429
			c-0.47,0.533-1.009,1.334-1.287,1.869c-0.319,0.613-0.736,1.509-0.736,4.102v11.018h-2.38v-22.09H465.046z"/>
		<path fill="#7AC5E2" d="M497.987,61.007v22.798c0,0.563-0.098,1.2-0.293,1.915c-0.193,0.713-0.494,1.445-0.897,2.195
			s-0.911,1.481-1.524,2.195s-1.334,1.352-2.162,1.914c-0.83,0.562-1.774,1.013-2.833,1.352c-1.062,0.339-2.233,0.509-3.516,0.509
			v-2.401c1.022,0,1.954-0.129,2.79-0.389s1.578-0.603,2.229-1.027c0.646-0.426,1.215-0.912,1.696-1.461
			c0.483-0.548,0.88-1.107,1.19-1.676c0.31-0.57,0.54-1.129,0.691-1.676c0.151-0.549,0.228-1.031,0.228-1.45V78.96
			c-0.376,0.549-0.782,1.023-1.222,1.428c-0.44,0.403-0.895,0.757-1.362,1.06s-0.946,0.56-1.429,0.768
			c-0.482,0.21-0.947,0.378-1.395,0.509c-1.053,0.316-2.12,0.498-3.2,0.541c-1.56,0-3.022-0.281-4.393-0.844
			c-1.368-0.562-2.567-1.341-3.591-2.336c-1.021-0.995-1.83-2.171-2.422-3.525c-0.592-1.355-0.886-2.826-0.886-4.414
			c0-1.57,0.294-3.038,0.886-4.4c0.592-1.363,1.396-2.542,2.412-3.537c1.018-0.995,2.199-1.777,3.547-2.347
			c1.35-0.569,2.787-0.854,4.316-0.854c1.064,0.043,2.125,0.224,3.178,0.541c0.447,0.129,0.916,0.3,1.406,0.508
			c0.49,0.209,0.978,0.465,1.461,0.768c0.482,0.304,0.955,0.664,1.416,1.082c0.463,0.418,0.887,0.895,1.276,1.428l-0.022-4.326
			H497.987z M495.63,72.169c0-1.212-0.23-2.355-0.693-3.429c-0.461-1.075-1.088-2.009-1.881-2.802s-1.723-1.42-2.79-1.882
			c-1.067-0.461-2.207-0.692-3.417-0.692c-1.213,0-2.355,0.231-3.43,0.692c-1.074,0.462-2.008,1.089-2.801,1.882
			s-1.42,1.727-1.881,2.802c-0.463,1.073-0.693,2.217-0.693,3.429c0,1.21,0.23,2.354,0.693,3.428
			c0.461,1.074,1.088,2.008,1.881,2.801s1.727,1.421,2.801,1.881c1.074,0.463,2.217,0.693,3.43,0.693c1.21,0,2.35-0.23,3.417-0.693
			c1.067-0.46,1.997-1.088,2.79-1.881s1.42-1.727,1.881-2.801C495.399,74.522,495.63,73.379,495.63,72.169z"/>
	</g>
	<g>
		<path fill="#FFFFFF" d="M14.589,3.218c-0.962,0-1.855,0.171-2.677,0.511c-0.822,0.341-1.539,0.823-2.15,1.444
			C9.149,5.795,8.668,6.527,8.317,7.369c-0.351,0.842-0.526,1.755-0.526,2.737c0,0.943,0.17,1.835,0.511,2.677
			c0.341,0.842,0.817,1.584,1.429,2.226c0.611,0.642,1.333,1.148,2.166,1.519c0.832,0.371,1.811,0.562,2.792,0.611
			c1.02,0.051,2.274,0.198,3.407,0.509c1.132,0.312,2.127,0.654,3.17,1.226c1.042,0.572,2.01,1.279,2.903,2.121
			c0.892,0.842,1.669,1.79,2.331,2.842c0.662,1.053,1.183,2.216,1.564,3.489c0.381,1.274,0.572,2.632,0.572,4.076
			c0,0.962-0.126,1.985-0.376,3.068c-0.251,1.083-0.632,2.156-1.143,3.219c-0.511,1.063-1.163,2.075-1.955,3.038
			c-0.792,0.963-1.72,1.815-2.782,2.557c-1.063,0.742-2.267,1.334-3.61,1.775c-1.344,0.441-2.838,0.662-4.482,0.662
			c-2.146,0-4.096-0.406-5.851-1.218c-1.755-0.812-3.259-1.875-4.512-3.188c-1.253-1.313-2.222-2.594-2.903-4.259
			C0.341,35.391,0,33.12,0,32.18h3.279c0,0,0.055,0.799,0.166,1.491c0.11,0.692,0.32,1.331,0.631,2.122
			c0.311,0.793,0.727,1.538,1.249,2.339c0.521,0.802,1.193,1.503,2.016,2.155c0.822,0.652,1.809,1.17,2.962,1.581
			c1.153,0.412,2.512,0.61,4.076,0.61c1.423,0,2.797-0.253,4.121-0.755c1.323-0.501,2.491-1.224,3.504-2.167
			c1.012-0.942,1.824-2.096,2.436-3.46c0.611-1.364,0.917-2.908,0.917-4.633c0-1.384-0.231-2.743-0.691-4.077
			c-0.462-1.333-1.148-2.521-2.061-3.564c-0.913-1.042-2.051-1.88-3.415-2.511c-1.363-0.632-2.9-0.888-4.678-0.999
			c-1.501-0.093-2.929-0.376-4.151-1.019c-1.224-0.641-2.275-1.352-3.127-2.344c-0.853-0.993-1.515-2.095-1.985-3.309
			c-0.471-1.213-0.707-2.38-0.707-3.504c0-0.963,0.186-2.035,0.557-3.219C5.47,5.735,6.062,4.632,6.874,3.609
			s1.859-1.88,3.144-2.572C11.3,0.345,12.844,0,14.649,0c1.384,0,2.597,0.2,3.64,0.601c1.042,0.402,1.935,0.922,2.677,1.564
			c0.742,0.642,1.354,1.354,1.835,2.135c0.481,0.782,0.862,1.545,1.143,2.287c0.28,0.742,0.476,1.196,0.586,1.817
			c0.11,0.622,0.166,1.216,0.166,1.216h-3.279c0,0-0.14-1.351-0.421-2.163c-0.281-0.812-0.707-1.436-1.278-2.097
			c-0.572-0.662-1.284-1.146-2.136-1.567C16.729,3.372,15.732,3.218,14.589,3.218z"/>
		<path fill="#FFFFFF" d="M34.375,31.24c0.02,0,0.115,0.784,0.286,1.525c0.17,0.742,0.436,1.439,0.797,2.312
			c0.361,0.873,0.842,1.705,1.443,2.607c0.602,0.902,1.344,1.693,2.226,2.425c0.882,0.732,1.935,1.32,3.158,1.791
			c1.223,0.472,2.637,0.7,4.242,0.7c0.902-0.06,1.709-0.169,2.421-0.32c0.711-0.15,1.504-0.392,2.376-0.723s1.729-0.803,2.571-1.415
			c0.842-0.611,1.685-1.516,2.407-2.459c0.722-0.942,1.223-1.743,1.624-3.623h3.279c-0.402,1.88-0.917,2.822-1.55,3.906
			c-0.631,1.083-1.328,2.098-2.09,2.9c-0.763,0.802-1.564,1.51-2.407,2.051c-0.842,0.542-1.675,1.011-2.497,1.372
			c-1.925,0.823-3.981,1.303-6.167,1.423c-1.765,0-3.364-0.226-4.798-0.688c-1.434-0.462-2.717-1.087-3.85-1.879
			c-1.133-0.793-2.111-1.71-2.933-2.754c-0.823-1.043-1.504-2.142-2.045-3.296c-0.542-1.155-0.943-2.324-1.204-3.508
			c-0.261-1.185-0.391-2.318-0.391-3.402c0-0.903,0.13-1.901,0.391-2.996s0.657-2.193,1.188-3.297
			c0.531-1.104,1.208-2.178,2.031-3.222c0.822-1.044,1.794-1.967,2.917-2.77c1.123-0.803,2.406-1.451,3.85-1.942
			c1.444-0.492,3.048-0.738,4.813-0.738c1.664,0,3.193,0.221,4.587,0.663c1.394,0.442,2.657,1.04,3.791,1.793
			c1.133,0.754,2.13,1.638,2.993,2.652c0.862,1.015,1.583,2.1,2.166,3.255c0.582,1.155,1.018,2.57,1.309,3.806
			c0.291,1.236,0.436,1.971,0.436,3.851H34.375z M58.349,27.48c-0.301-0.94-0.697-2.064-1.188-2.957
			c-0.492-0.892-1.043-1.606-1.655-2.268c-0.612-0.661-1.263-1.187-1.955-1.638c-0.692-0.451-1.369-0.811-2.031-1.112
			c-1.564-0.681-3.207-1.165-5.053-1.165c-1.752,0-3.489,0.495-5.054,1.177c-0.662,0.301-1.338,0.679-2.03,1.13
			c-0.692,0.451-1.344,1.009-1.956,1.67c-0.612,0.662-1.163,1.313-1.654,2.205c-0.492,0.893-0.887,2.017-1.188,2.957H58.349z"/>
		<path fill="#FFFFFF" d="M94.727,15.041v30.38c0,2.025,0.41,3.795,1.152,5.309s1.72,2.768,2.893,3.76
			c1.173,0.993,2.396,1.734,3.87,2.227c1.474,0.49,3.366,0.736,4.306,0.736v3.309c-1.88,0-4.622-0.451-6.567-1.354
			c-1.946-0.902-3.524-2.08-4.848-3.533c-1.323-1.455-2.114-3.094-2.805-4.918c-0.692-1.826-0.82-3.661-0.82-5.505v-5.505
			c-0.661,0.724-1.313,1.364-1.934,1.925c-0.623,0.562-1.359,1.043-2.02,1.443c-0.662,0.402-1.376,0.742-2.049,1.023
			c-0.672,0.281-1.342,0.511-1.963,0.691c-1.443,0.421-2.93,0.662-4.433,0.722c-1.324,0-2.623-0.171-3.887-0.511
			c-1.263-0.341-2.469-0.827-3.613-1.459c-1.143-0.631-2.192-1.398-3.145-2.301c-0.953-0.902-1.78-1.925-2.482-3.068
			c-0.703-1.143-1.249-2.386-1.64-3.729s-0.587-2.768-0.587-4.271c0-1.985,0.366-3.9,1.098-5.746
			c0.732-1.845,1.765-3.479,3.099-4.903c1.333-1.424,2.942-2.566,4.828-3.429c1.885-0.862,3.99-1.293,6.317-1.293
			c1.483,0.08,2.948,0.331,4.392,0.751c0.622,0.181,1.263,0.412,1.925,0.692c0.662,0.281,1.323,0.627,1.985,1.038
			c0.661,0.411,1.313,0.893,1.955,1.444c0.642,0.552,1.233,1.299,1.775,2.021v-5.945H94.727z M91.527,30.471
			c0-1.684-0.321-3.259-0.962-4.723c-0.642-1.463-1.509-2.747-2.602-3.85c-1.093-1.103-2.376-1.97-3.85-2.602
			c-1.474-0.631-3.043-0.947-4.708-0.947c-1.665,0-3.233,0.316-4.708,0.947c-1.474,0.632-2.757,1.5-3.85,2.602
			c-1.093,1.103-1.956,2.387-2.587,3.85c-0.632,1.464-0.947,3.039-0.947,4.723c0,1.665,0.315,3.234,0.947,4.708
			c0.631,1.474,1.494,2.758,2.587,3.851c1.093,1.093,2.376,1.955,3.85,2.587c1.474,0.631,3.043,0.947,4.708,0.947
			c1.664,0,3.233-0.316,4.708-0.947c1.474-0.632,2.757-1.494,3.85-2.587c1.093-1.093,1.96-2.377,2.602-3.851
			C91.206,33.705,91.527,32.136,91.527,30.471z"/>
		<path fill="#FFFFFF" d="M101.307,15.041V30.2c0,1.865,0.235,3.566,0.78,5.083c0.562,1.564,1.496,2.879,2.608,3.961
			c1.113,1.083,2.404,1.833,3.868,2.424c1.463,0.592,2.831,0.822,4.436,0.822c1.123,0,2.27-0.074,3.303-0.395
			c1.033-0.32,1.948-0.736,2.861-1.277c0.912-0.542,1.736-1.168,2.478-1.88c0.741-0.711,1.382-1.464,1.923-2.256
			c0.542-0.792,0.835-1.487,1.067-2.328c0.235-0.852,0.176-1.697,0.176-2.439V15.041h3.76v30.676h-3.76v-5.4
			c-0.494,0.621-0.863,0.963-1.495,1.524c-0.631,0.562-1.166,1.043-1.838,1.444c-0.672,0.401-1.291,0.742-1.972,1.023
			c-0.682,0.281-1.305,0.511-1.926,0.691c-1.484,0.421-2.974,0.662-4.498,0.722c-2.487,0-4.685-0.451-6.61-1.354
			c-1.925-0.902-3.633-2.028-4.957-3.493c-1.324-1.463-2.333-3.021-3.025-4.876c-0.691-1.855-0.94-3.894-0.94-5.799v-15.16H101.307z
			"/>
		<path fill="#FFFFFF" d="M134.207,31.24c0.02,0,0.028,0.784,0.198,1.525s0.436,1.439,0.797,2.312
			c0.361,0.873,0.842,1.705,1.443,2.607c0.602,0.902,1.344,1.693,2.226,2.425c0.882,0.732,1.935,1.32,3.158,1.791
			c1.224,0.472,2.637,0.7,4.242,0.7c0.902-0.06,1.709-0.169,2.421-0.32c0.711-0.15,1.504-0.392,2.376-0.723s1.697-0.819,2.54-1.431
			c0.842-0.611,1.599-1.392,2.32-2.335c0.722-0.942,1.249-2.086,1.743-3.731h3.279c-0.401,1.88-0.879,2.971-1.511,4.054
			s-1.367,1.95-2.129,2.752c-0.762,0.802-1.564,1.51-2.407,2.051c-0.842,0.542-1.675,1.011-2.497,1.372
			c-1.925,0.823-3.981,1.303-6.167,1.423c-1.765,0-3.364-0.226-4.798-0.688c-1.434-0.462-2.717-1.087-3.85-1.879
			c-1.133-0.793-2.111-1.71-2.933-2.754c-0.823-1.043-1.504-2.142-2.045-3.296c-0.542-1.155-0.943-2.324-1.203-3.508
			c-0.261-1.185-0.391-2.318-0.391-3.402c0-0.903,0.13-1.901,0.391-2.996c0.26-1.094,0.657-2.193,1.188-3.297
			s1.208-2.178,2.031-3.222c0.822-1.044,1.794-1.967,2.917-2.77c1.123-0.803,2.406-1.451,3.85-1.942
			c1.444-0.492,3.048-0.738,4.813-0.738c1.664,0,3.193,0.221,4.587,0.663c1.394,0.442,2.657,1.04,3.791,1.793
			c1.133,0.754,2.13,1.638,2.993,2.652c0.862,1.015,1.583,2.1,2.166,3.255c0.582,1.155,1.018,2.57,1.309,3.806
			c0.291,1.236,0.436,1.971,0.436,3.851H134.207z M158.093,27.48c-0.301-0.94-0.697-2.064-1.188-2.957
			c-0.492-0.892-1.043-1.606-1.655-2.268c-0.612-0.661-1.263-1.187-1.955-1.638c-0.692-0.451-1.369-0.811-2.031-1.112
			c-1.564-0.681-3.249-1.064-5.053-1.165c-1.805,0.101-3.489,0.495-5.054,1.177c-0.662,0.301-1.338,0.679-2.03,1.13
			c-0.692,0.451-1.343,1.009-1.955,1.67c-0.612,0.662-1.035,1.304-1.526,2.195c-0.492,0.893-0.933,2.027-1.234,2.967H158.093z"/>
		<path fill="#FFFFFF" d="M167.106,20.753c0.628-0.732,1.058-1.278,1.771-1.96c0.711-0.682,1.635-1.322,2.68-1.903
			c0.947-0.527,2.04-0.945,3.363-1.366c1.323-0.421,2.91-0.484,4.494-0.484c2.046,0,4.323,0.26,6.198,1.042
			c1.875,0.782,3.243,1.629,4.677,3.003c1.434,1.374,2.731,2.988,3.584,4.843c0.852,1.854,1.315,3.933,1.315,6.058v15.73h-3.643
			V29.869c0-1.324-0.217-2.692-0.708-4.106c-0.49-1.414-1.228-2.697-2.239-3.85c-1.011-1.153-2.271-2.101-3.793-2.843
			c-1.522-0.741-3.302-1.113-5.345-1.113c-1.381,0-2.637,0.181-3.769,0.541c-1.132,0.361-2.147,0.838-3.048,1.429
			c-0.902,0.591-1.687,1.263-2.358,2.015c-0.671,0.752-1.231,1.514-1.682,2.286s-0.768,1.53-0.988,2.272
			c-0.22,0.742-0.319,1.358-0.319,1.919c0,0,0,17.234,0,17.297h-3.01V15.041l2.82-0.015V20.753z"/>
		<path fill="#FFFFFF" d="M223.396,24.66c-0.443-0.812-0.892-1.396-1.414-2.028c-0.521-0.631-1.078-1.102-1.669-1.563
			c-0.593-0.46-1.193-0.808-1.805-1.119c-0.613-0.311-1.199-0.557-1.761-0.778c-1.344-0.481-2.737-0.752-4.181-0.833
			c-1.886,0-3.57,0.366-5.054,1.089c-1.484,0.723-2.743,1.669-3.774,2.833c-1.034,1.165-1.826,2.476-2.377,3.931
			c-0.551,1.456-0.827,2.907-0.827,4.353c0,1.446,0.28,2.887,0.841,4.322c0.562,1.435,1.364,2.726,2.407,3.871
			c1.042,1.144,2.306,2.073,3.789,2.786c1.484,0.712,3.149,1.069,4.994,1.069c1.403-0.06,2.776-0.331,4.12-0.812
			c0.562-0.2,1.147-0.456,1.761-0.767c0.611-0.311,1.213-0.697,1.805-1.158c0.591-0.461,1.205-1.023,1.746-1.645
			c0.542-0.621,0.977-1.331,1.397-2.271h3.309c-0.338,1.038-0.953,2.329-1.595,3.251c-0.641,0.923-1.333,1.756-2.076,2.438
			c-0.742,0.682-1.513,1.271-2.315,1.738s-1.595,0.857-2.377,1.154c-1.845,0.696-3.78,1.096-5.805,1.195
			c-1.805,0-3.429-0.238-4.873-0.72c-1.444-0.482-2.728-1.128-3.851-1.941c-1.123-0.812-2.09-1.741-2.903-2.785
			c-0.811-1.043-1.479-2.128-2-3.252s-0.907-2.248-1.158-3.372c-0.251-1.125-0.376-2.158-0.376-3.102
			c0-0.943,0.121-1.977,0.361-3.101c0.241-1.124,0.622-2.258,1.144-3.402c0.521-1.144,1.182-2.243,1.984-3.297
			c0.802-1.054,1.765-1.993,2.888-2.815c1.123-0.823,2.411-1.48,3.865-1.972c1.454-0.492,3.093-0.738,4.918-0.738
			c2.065,0.122,4.02,0.537,5.865,1.245c0.782,0.305,1.579,0.695,2.392,1.17c0.812,0.476,1.583,1.055,2.315,1.736
			c0.731,0.682,1.409,1.332,2.031,2.253c0.621,0.922,1.108,1.899,1.564,3.036H223.396z"/>
		<path fill="#FFFFFF" d="M283.487,0.573c2.064,0,6.818,0.206,8.805,0.702c1.94,0.485,3.74,1.249,5.445,2.231
			c1.703,0.983,3.257,2.138,4.662,3.522c1.404,1.384,2.606,2.909,3.609,4.604c1.002,1.695,1.783,3.502,2.346,5.438
			c0.562,1.936,0.843,3.952,0.843,6.058c0,2.085-0.267,4.1-0.797,6.044c-0.532,1.945-1.289,3.77-2.271,5.474
			c-0.984,1.705-2.162,3.258-3.535,4.662c-1.375,1.404-2.902,2.607-4.588,3.609c-1.693,1.009-3.472,1.808-5.439,2.249
			c-1.982,0.444-6.836,0.529-8.961,0.529h-2.76V0.573H283.487z M305.948,23.213c0-2.266-0.306-4.326-0.917-6.182
			c-0.612-1.854-1.429-3.504-2.452-4.948c-1.023-1.444-2.196-2.697-3.518-3.76c-1.324-1.063-2.703-1.945-4.137-2.647
			c-1.434-0.702-2.697-1.081-4.12-1.432c-1.425-0.351-5.259-0.479-7.138-0.5v38.716c1.879-0.02,6.225-0.117,7.754-0.411
			c1.528-0.294,3.203-0.993,4.623-1.797c1.435-0.812,2.779-1.8,3.982-2.963s2.255-2.467,3.127-3.911s1.56-3.023,2.052-4.738
			C305.696,26.928,305.948,25.118,305.948,23.213z"/>
		<path fill="#FFFFFF" d="M316.566,15.041v30.676h-3.76V15.041H316.566z"/>
		<path fill="#FFFFFF" d="M350.407,15.041v30.676h-2.82v-6.075c-0.686,0.901-1.35,1.608-1.971,2.169
			c-0.622,0.562-1.375,1.048-2.039,1.458c-0.66,0.412-1.385,0.757-2.055,1.038c-0.672,0.281-1.349,0.511-1.969,0.691
			c-1.465,0.421-2.963,0.662-4.467,0.722c-1.425,0-2.793-0.19-4.098-0.571c-1.303-0.38-2.525-0.906-3.658-1.577
			c-1.133-0.672-2.163-1.478-3.084-2.419c-0.924-0.941-1.713-1.979-2.363-3.11c-0.651-1.131-1.158-2.339-1.521-3.621
			c-0.36-1.282-0.542-2.604-0.542-3.967s0.182-2.685,0.542-3.967c0.362-1.282,0.868-2.489,1.521-3.621
			c0.649-1.131,1.438-2.168,2.361-3.11c0.921-0.942,1.949-1.748,3.082-2.419s2.355-1.197,3.67-1.578
			c1.312-0.38,2.691-0.571,4.137-0.571c1.504,0.06,2.986,0.301,4.451,0.722c0.621,0.18,1.264,0.411,1.925,0.692
			c0.663,0.281,1.323,0.627,1.986,1.038c0.661,0.412,1.544,0.979,2.167,1.54c0.622,0.562,1.292,1.249,1.924,1.983v-6.124H350.407z
			 M347.226,30.456c0-1.667-0.316-3.237-0.947-4.713c-0.633-1.476-1.495-2.761-2.588-3.855c-1.092-1.094-2.375-1.962-3.85-2.605
			s-3.044-0.964-4.707-0.964c-1.686,0-3.26,0.321-4.725,0.964c-1.463,0.643-2.746,1.511-3.85,2.605s-1.97,2.379-2.602,3.855
			c-0.631,1.476-0.947,3.046-0.947,4.713c0,1.667,0.316,3.238,0.947,4.714c0.632,1.476,1.498,2.766,2.602,3.87
			c1.104,1.105,2.387,1.973,3.85,2.605c1.465,0.632,3.039,0.949,4.725,0.949c1.663,0,3.232-0.316,4.707-0.949
			c1.475-0.633,2.758-1.5,3.85-2.605c1.093-1.104,1.955-2.394,2.588-3.87C346.909,33.693,347.226,32.123,347.226,30.456z"/>
		<path fill="#FFFFFF" d="M384.247,15.041v31.553c0,1.058-0.054,2.087-0.412,3.123c-0.336,0.973-0.754,1.919-1.321,2.879
			c-0.604,1.019-1.41,2.032-2.263,3.026c-0.852,0.992-1.872,1.803-3.025,2.584c-1.154,0.782-2.521,1.379-3.994,1.852
			c-1.473,0.471-3.085,0.703-4.965,0.703v-3.289c0.939,0,2.715-0.285,3.877-0.646c1.164-0.361,2.27-0.877,3.173-1.469
			s1.708-1.353,2.38-2.114c0.672-0.763,1.154-1.47,1.586-2.263c0.432-0.792,0.729-1.47,0.939-2.232
			c0.21-0.762,0.266-1.572,0.266-2.153v-6.738c-0.687,0.96-1.086,1.424-1.697,1.985c-0.611,0.562-1.24,1.053-1.893,1.474
			c-0.652,0.421-1.313,0.778-1.986,1.068c-0.672,0.291-1.316,0.526-1.938,0.707c-1.465,0.441-2.948,0.692-4.451,0.752
			c-2.167,0-4.203-0.391-6.107-1.173c-1.905-0.782-3.57-1.865-4.993-3.249c-1.425-1.384-2.546-3.018-3.369-4.903
			c-0.822-1.885-1.233-3.93-1.233-6.136c0-2.186,0.411-4.226,1.233-6.122c0.823-1.895,1.94-3.534,3.354-4.918
			c1.414-1.383,3.051-2.484,4.934-3.263c1.832-0.759,3.89-1.037,6.014-1.037c1.485,0.06,3.173,0.234,4.408,0.601
			c0.619,0.184,1.272,0.417,1.955,0.707c0.682,0.291,1.359,0.646,2.031,1.068c0.672,0.421,1.327,0.922,1.97,1.504
			c0.641,0.582,1.254,1.393,1.775,2.171v-6.05H384.247z M380.553,30.411c0-1.685-0.319-3.274-0.962-4.768s-1.515-2.792-2.616-3.896
			c-1.104-1.103-2.397-1.975-3.882-2.617c-1.482-0.642-3.067-0.963-4.753-0.963c-1.683,0-3.28,0.307-4.767,0.963
			c-1.436,0.633-2.866,1.573-3.895,2.617c-1.096,1.111-1.977,2.402-2.619,3.896c-0.641,1.494-0.961,3.083-0.961,4.768
			s0.32,3.274,0.961,4.768c0.643,1.494,1.516,2.793,2.619,3.896c1.102,1.103,2.4,1.976,3.895,2.617
			c1.493,0.642,3.084,0.962,4.767,0.962c1.686,0,3.271-0.321,4.753-0.962c1.484-0.642,2.779-1.513,3.882-2.617
			c1.102-1.103,1.974-2.401,2.616-3.896C380.233,33.685,380.553,32.095,380.553,30.411z"/>
		<path fill="#FFFFFF" d="M390.827,15.025v5.038c0.441-0.555,0.866-1.011,1.498-1.542c0.631-0.531,1.205-0.941,1.878-1.333
			c0.672-0.391,1.487-0.82,2.19-1.091c0.701-0.271,1.67-0.564,2.423-0.705c0.989-0.185,2.351-0.272,4.229-0.352v3.005
			c-1.674,0-2.945,0.18-4.129,0.542c-1.183,0.361-2.285,0.832-3.207,1.414c-0.922,0.582-1.734,1.244-2.386,1.985
			c-0.651,0.742-1.196,1.479-1.606,2.211c-0.411,0.732-0.617,1.418-0.754,2.105c-0.121,0.608-0.137,1.238-0.137,1.7v17.714h-3.761
			V15.025H390.827z"/>
		<path fill="#FFFFFF" d="M435.946,15.041v30.676h-3.76v-5.507c-0.479,0.638-0.887,1.084-1.508,1.645
			c-0.621,0.562-1.213,1.004-1.875,1.415c-0.662,0.412-1.282,0.757-1.952,1.038c-0.673,0.281-1.296,0.511-1.917,0.691
			c-1.465,0.421-2.937,0.662-4.439,0.722c-1.426,0-2.781-0.19-4.084-0.571c-1.305-0.38-2.521-0.906-3.653-1.577
			c-1.133-0.672-2.16-1.478-3.081-2.419c-0.924-0.941-1.711-1.979-2.361-3.11c-0.65-1.131-1.156-2.339-1.519-3.621
			c-0.36-1.282-0.542-2.604-0.542-3.967s0.182-2.685,0.542-3.967c0.362-1.282,0.868-2.489,1.521-3.621
			c0.649-1.131,1.438-2.168,2.361-3.11c0.921-0.942,1.949-1.748,3.082-2.419s2.355-1.197,3.67-1.578
			c1.312-0.38,2.691-0.571,4.137-0.571c1.504,0.06,2.986,0.301,4.451,0.722c0.621,0.18,1.264,0.411,1.925,0.692
			c0.663,0.281,1.323,0.627,1.986,1.038c0.661,0.412,1.227,0.8,1.832,1.378c0.646,0.617,1.007,1.016,1.425,1.674v-5.654H435.946z
			 M432.659,30.456c0-1.667-0.316-3.237-0.948-4.713s-1.494-2.761-2.587-3.855c-1.092-1.094-2.375-1.962-3.85-2.605
			s-3.044-0.964-4.707-0.964c-1.686,0-3.26,0.321-4.725,0.964c-1.463,0.643-2.746,1.511-3.85,2.605s-1.971,2.379-2.602,3.855
			s-0.947,3.046-0.947,4.713c0,1.667,0.316,3.238,0.947,4.714c0.631,1.476,1.498,2.766,2.602,3.87
			c1.104,1.105,2.387,1.973,3.85,2.605c1.465,0.632,3.039,0.949,4.725,0.949c1.663,0,3.232-0.316,4.707-0.949
			c1.475-0.633,2.758-1.5,3.85-2.605c1.093-1.104,1.955-2.394,2.587-3.87C432.343,33.693,432.659,32.123,432.659,30.456z"/>
		<path fill="#FFFFFF" d="M468.651,23.524c0.201-0.481,0.572-1.244,1.003-1.89c0.407-0.612,0.872-1.278,1.483-1.91
			c0.611-0.631,1.391-1.292,2.184-1.894c0.791-0.602,2.297-1.414,3.79-1.944c1.489-0.529,3.31-0.846,5.277-0.846
			c1.924,0,3.825,0.261,5.688,1.003c1.865,0.742,3.551,1.633,5.014,2.977c1.463,1.344,2.631,2.853,3.533,4.728
			c0.902,1.875,1.363,3.946,1.363,6.211v15.758h-3.761V29.869c0-1.424-0.073-2.848-0.626-4.271c-0.551-1.423-1.252-2.707-2.305-3.85
			s-2.286-2.071-3.799-2.783c-1.515-0.711-3.211-1.067-5.135-1.067c-1.845,0-3.497,0.346-4.98,1.038s-2.751,1.599-3.814,2.723
			c-1.062,1.123-1.769,2.358-2.217,3.834c-0.373,1.228-0.624,2.883-0.624,4.347v15.878h-3.76V29.809
			c0-1.264-0.255-2.592-0.728-3.986c-0.47-1.394-1.213-2.677-2.205-3.85c-0.992-1.173-2.271-2.146-3.824-2.917
			c-1.555-0.772-3.408-1.158-5.553-1.158c-1.465,0-2.785,0.201-3.958,0.601c-1.173,0.402-2.205,0.923-3.097,1.564
			c-0.895,0.642-1.661,1.359-2.304,2.151c-0.641,0.792-1.205,1.684-1.616,2.466c-0.412,0.782-1.156,2.448-1.156,3.776v17.261h-3.76
			V15.041h3.76v5.448c0.506-0.783,1.207-1.413,1.959-2.075c0.75-0.662,1.41-1.108,2.463-1.699s2.004-0.947,3.334-1.292
			c1.072-0.279,2.939-0.381,4.463-0.381c1.263,0,2.854,0.15,3.967,0.44c1.115,0.291,1.858,0.557,2.82,1.028s1.79,1.014,2.57,1.615
			c0.782,0.602,1.445,1.112,2.057,1.733s1.072,1.161,1.482,1.762C468.054,22.222,468.451,23.043,468.651,23.524z"/>
		<path fill="#7AC5E2" d="M312.542,2.436c0-0.682,0.237-1.258,0.707-1.729C313.721,0.236,314.298,0,314.979,0
			c0.683,0,1.259,0.236,1.729,0.707c0.472,0.472,0.709,1.048,0.709,1.729c0,0.682-0.237,1.259-0.709,1.729
			c-0.471,0.471-1.047,0.707-1.729,0.707c-0.681,0-1.258-0.236-1.729-0.707C312.779,3.695,312.542,3.118,312.542,2.436z"/>
		<path fill="#7AC5E2" d="M312.542,2.436c0-0.682,0.237-1.258,0.707-1.729C313.721,0.236,314.298,0,314.979,0
			c0.683,0,1.259,0.236,1.729,0.707c0.472,0.472,0.709,1.048,0.709,1.729c0,0.682-0.237,1.259-0.709,1.729
			c-0.471,0.471-1.047,0.707-1.729,0.707c-0.681,0-1.258-0.236-1.729-0.707C312.779,3.695,312.542,3.118,312.542,2.436z"/>
		<path fill="#FFFFFF" d="M232.231,31.24c0.02,0,0.062,0.752,0.162,1.483c0.103,0.754,0.386,1.481,0.746,2.354
			c0.361,0.873,0.842,1.705,1.444,2.607c0.601,0.902,1.343,1.693,2.225,2.425c0.883,0.732,1.935,1.32,3.159,1.791
			c1.224,0.472,2.637,0.7,4.242,0.7c0.901-0.06,1.709-0.169,2.422-0.32c0.71-0.15,1.503-0.392,2.375-0.723s1.697-0.819,2.539-1.431
			c0.843-0.611,1.599-1.392,2.321-2.335c0.722-0.942,1.202-1.917,1.742-3.731h3.279c-0.402,1.88-0.879,2.971-1.512,4.054
			c-0.631,1.083-1.365,1.95-2.128,2.752c-0.763,0.802-1.563,1.51-2.407,2.051c-0.842,0.542-1.674,1.011-2.496,1.372
			c-1.925,0.823-3.98,1.303-6.167,1.423c-1.764,0-3.363-0.226-4.797-0.688c-1.434-0.462-2.717-1.087-3.85-1.879
			c-1.133-0.793-2.111-1.71-2.933-2.754c-0.822-1.043-1.504-2.142-2.045-3.296c-0.542-1.155-0.943-2.324-1.204-3.508
			c-0.261-1.185-0.391-2.318-0.391-3.402c0-0.903,0.13-1.901,0.391-2.996s0.657-2.193,1.188-3.297
			c0.531-1.104,1.208-2.178,2.03-3.222c0.823-1.044,1.795-1.967,2.918-2.77c1.123-0.803,2.406-1.451,3.85-1.942
			c1.444-0.492,3.049-0.738,4.813-0.738c1.665,0,3.193,0.221,4.587,0.663c1.393,0.442,2.657,1.04,3.79,1.793
			c1.133,0.754,2.13,1.638,2.993,2.652c0.862,1.015,1.584,2.1,2.166,3.255c0.581,1.155,1.018,2.57,1.309,3.806
			c0.291,1.236,0.436,1.971,0.436,3.851H232.231z M255.585,27.48c-0.146-0.969-0.704-2.51-1.174-3.399
			c-0.502-0.948-1.676-2.344-2.455-2.99c-0.761-0.632-2.029-1.427-3.01-1.855c-1.363-0.596-2.898-0.937-4.84-0.937
			c-1.915,0-3.445,0.309-4.97,1.074c-1.506,0.756-2.561,1.688-3.173,2.35s-1.466,1.752-1.958,2.644
			c-0.491,0.893-0.952,2.174-1.253,3.114H255.585z"/>
	</g>
	<defs>
		<filter id="Adobe_OpacityMaskFilter" filterUnits="userSpaceOnUse" x="106.947" y="57.452" width="261.32" height="3.309">
			
				<feColorMatrix  type="matrix" values="-1 0 0 0 1  0 -1 0 0 1  0 0 -1 0 1  0 0 0 1 0" color-interpolation-filters="sRGB" result="source"/>
		</filter>
	</defs>
	<mask maskUnits="userSpaceOnUse" x="106.947" y="57.452" width="261.32" height="3.309" id="SVGID_1_">
		<g filter="url(#Adobe_OpacityMaskFilter)">
			<rect x="-17.133" y="-21.4" width="563.06" height="105.28"/>
			<g>
				<rect x="108.827" y="55.681" fill="#FFFFFF" width="3.76" height="6.58"/>
				<rect x="112.586" y="55.681" width="11.28" height="6.58"/>
				<rect x="123.867" y="55.681" fill="#FFFFFF" width="3.76" height="6.58"/>
				<rect x="127.626" y="55.681" width="12.22" height="6.58"/>
				<rect x="139.847" y="55.681" fill="#FFFFFF" width="2.82" height="6.58"/>
				<rect x="142.667" y="55.681" width="12.22" height="6.58"/>
				<rect x="154.887" y="55.681" fill="#FFFFFF" width="2.82" height="6.58"/>
				<rect x="157.707" y="55.681" width="11.28" height="6.58"/>
				<rect x="168.987" y="55.681" fill="#FFFFFF" width="3.76" height="6.58"/>
				<rect x="172.747" y="55.681" width="11.28" height="6.58"/>
				<rect x="184.027" y="55.681" fill="#FFFFFF" width="3.76" height="6.58"/>
				<rect x="187.787" y="55.681" width="11.28" height="6.58"/>
				<rect x="199.066" y="55.681" fill="#FFFFFF" width="3.76" height="6.58"/>
				<rect x="202.827" y="55.681" width="11.28" height="6.58"/>
				<rect x="214.106" y="55.681" fill="#FFFFFF" width="3.76" height="6.58"/>
				<rect x="217.867" y="55.681" width="10.34" height="6.58"/>
				<rect x="228.207" y="55.681" fill="#FFFFFF" width="3.76" height="6.58"/>
				<rect x="231.967" y="55.681" width="11.28" height="6.58"/>
				<rect x="243.247" y="55.681" fill="#FFFFFF" width="3.76" height="6.58"/>
				<rect x="247.007" y="55.681" width="11.279" height="6.58"/>
				<rect x="258.286" y="55.681" fill="#FFFFFF" width="3.76" height="6.58"/>
				<rect x="262.046" y="55.681" width="12.221" height="6.58"/>
				<rect x="274.267" y="55.681" fill="#FFFFFF" width="2.82" height="6.58"/>
				<rect x="277.087" y="55.681" width="11.279" height="6.58"/>
				<rect x="288.366" y="55.681" fill="#FFFFFF" width="2.82" height="6.58"/>
				<rect x="291.187" y="55.681" width="12.221" height="6.58"/>
				<rect x="303.407" y="55.681" fill="#FFFFFF" width="3.76" height="6.58"/>
				<rect x="307.167" y="55.681" width="11.279" height="6.58"/>
				<rect x="318.446" y="55.681" fill="#FFFFFF" width="3.76" height="6.58"/>
				<rect x="322.206" y="55.681" width="11.281" height="6.58"/>
				<rect x="333.487" y="55.681" fill="#FFFFFF" width="3.76" height="6.58"/>
				<rect x="337.247" y="55.681" width="10.34" height="6.58"/>
				<rect x="347.587" y="55.681" fill="#FFFFFF" width="3.76" height="6.58"/>
				<rect x="351.347" y="55.681" width="10.34" height="6.58"/>
				<rect x="361.687" y="55.681" fill="#FFFFFF" width="3.76" height="6.58"/>
				<rect x="365.446" y="55.681" width="10.34" height="6.58"/>
			</g>
		</g>
	</mask>
	<rect x="106.947" y="57.452" mask="url(#SVGID_1_)" fill="#FFFFFF" width="261.32" height="3.309"/>
</g>
</svg>
