<?xml version="1.0" encoding="utf-8"?>
<!-- Generator: Adobe Illustrator 16.0.0, SVG Export Plug-In . SVG Version: 6.00 Build 0)  -->
<!DOCTYPE svg PUBLIC "-//W3C//DTD SVG 1.1//EN" "http://www.w3.org/Graphics/SVG/1.1/DTD/svg11.dtd">
<svg version="1.1" id="Layer_1" xmlns="http://www.w3.org/2000/svg" xmlns:xlink="http://www.w3.org/1999/xlink" x="0px" y="0px"
	 width="497.986px" height="93.885px" viewBox="0 0 497.986 93.885" enable-background="new 0 0 497.986 93.885"
	 xml:space="preserve">
<g id="_x31_">
	<g>
		<path fill="#7CC6E3" d="M435.41,79.837c0.434,0,0.806,0.156,1.113,0.466c0.312,0.312,0.467,0.681,0.467,1.114
			c0,0.432-0.155,0.805-0.467,1.114c-0.309,0.31-0.681,0.465-1.113,0.465c-0.432,0-0.803-0.155-1.112-0.465
			c-0.312-0.312-0.466-0.683-0.466-1.114c0-0.434,0.154-0.805,0.466-1.114C434.608,79.993,434.979,79.837,435.41,79.837z"/>
		<path fill="#7CC6E3" d="M449.839,60.761c1.528,0,2.97,0.291,4.325,0.875c1.355,0.586,2.535,1.379,3.537,2.381
			c1.001,1.002,1.794,2.181,2.379,3.535c0.584,1.355,0.875,2.799,0.875,4.326c0,1.543-0.291,2.989-0.875,4.337
			c-0.585,1.349-1.378,2.524-2.379,3.526c-1.002,1.002-2.182,1.795-3.537,2.379s-2.797,0.876-4.325,0.876
			c-1.543,0-2.988-0.292-4.336-0.876c-1.349-0.584-2.525-1.377-3.526-2.379c-1.003-1.002-1.796-2.178-2.38-3.526
			c-0.584-1.348-0.875-2.794-0.875-4.337c0-1.527,0.291-2.971,0.875-4.326c0.584-1.354,1.377-2.533,2.38-3.535
			c1.001-1.002,2.179-1.795,3.526-2.381C446.851,61.052,448.296,60.761,449.839,60.761z M458.664,71.878
			c0-1.211-0.229-2.354-0.692-3.428c-0.461-1.074-1.093-2.012-1.894-2.812s-1.737-1.432-2.812-1.893s-2.217-0.692-3.429-0.692
			c-1.211,0-2.354,0.231-3.429,0.692c-1.073,0.461-2.012,1.092-2.812,1.893c-0.8,0.801-1.431,1.738-1.893,2.812
			c-0.461,1.074-0.69,2.217-0.69,3.428s0.229,2.354,0.69,3.43c0.462,1.074,1.093,2.01,1.893,2.812
			c0.802,0.801,1.739,1.432,2.812,1.893c1.073,0.462,2.218,0.692,3.429,0.692c1.212,0,2.354-0.23,3.429-0.692
			c1.073-0.461,2.011-1.092,2.812-1.893c0.801-0.802,1.433-1.737,1.894-2.812C458.435,74.231,458.664,73.089,458.664,71.878z"/>
		<path fill="#7CC6E3" d="M465.046,61.007v3.977c0.358-0.506,0.767-0.948,1.221-1.33c0.455-0.383,0.923-0.715,1.406-0.995
			c0.481-0.28,0.978-0.521,1.48-0.714c0.505-0.194,0.987-0.356,1.449-0.486c1.095-0.288,2.214-0.393,3.354-0.45v2.224
			c-1.083,0-2.049,0.174-2.898,0.434s-1.607,0.598-2.271,1.018c-0.665,0.418-1.23,0.896-1.697,1.428
			c-0.471,0.533-1.01,1.334-1.287,1.869c-0.319,0.613-0.736,1.51-0.736,4.103v11.019h-2.38V61.01h2.359V61.007z"/>
		<path fill="#7CC6E3" d="M497.987,61.007v22.799c0,0.562-0.098,1.199-0.293,1.914c-0.192,0.713-0.494,1.445-0.896,2.195
			c-0.403,0.75-0.911,1.48-1.524,2.195c-0.613,0.714-1.334,1.352-2.162,1.914c-0.83,0.562-1.773,1.013-2.833,1.352
			c-1.062,0.339-2.232,0.509-3.516,0.509v-2.401c1.021,0,1.954-0.129,2.79-0.389s1.578-0.603,2.229-1.027
			c0.646-0.426,1.215-0.911,1.696-1.461c0.483-0.547,0.88-1.106,1.19-1.676c0.31-0.57,0.54-1.129,0.69-1.676
			c0.151-0.549,0.229-1.031,0.229-1.449V78.96c-0.376,0.549-0.782,1.023-1.223,1.428c-0.439,0.403-0.895,0.758-1.361,1.061
			c-0.468,0.303-0.946,0.56-1.43,0.768c-0.481,0.21-0.946,0.378-1.395,0.51c-1.053,0.315-2.12,0.498-3.2,0.541
			c-1.56,0-3.021-0.281-4.393-0.845c-1.368-0.562-2.567-1.341-3.592-2.336c-1.021-0.995-1.829-2.171-2.422-3.524
			c-0.592-1.355-0.886-2.826-0.886-4.414c0-1.57,0.294-3.039,0.886-4.4c0.593-1.363,1.396-2.542,2.412-3.537
			c1.019-0.995,2.199-1.777,3.547-2.348c1.351-0.568,2.787-0.854,4.316-0.854c1.063,0.043,2.125,0.225,3.178,0.541
			c0.447,0.129,0.916,0.301,1.406,0.508c0.49,0.209,0.978,0.465,1.461,0.769c0.482,0.304,0.955,0.664,1.416,1.082
			c0.463,0.418,0.887,0.895,1.276,1.428l-0.022-4.326h2.425V61.007z M495.63,72.169c0-1.212-0.23-2.355-0.693-3.429
			c-0.461-1.075-1.088-2.009-1.881-2.802s-1.724-1.42-2.79-1.883c-1.067-0.461-2.207-0.691-3.417-0.691
			c-1.213,0-2.355,0.23-3.43,0.691c-1.074,0.463-2.009,1.09-2.802,1.883s-1.42,1.727-1.881,2.802
			c-0.463,1.073-0.692,2.217-0.692,3.429c0,1.21,0.229,2.354,0.692,3.428c0.461,1.074,1.088,2.008,1.881,2.801
			s1.728,1.422,2.802,1.881c1.073,0.464,2.217,0.693,3.43,0.693c1.21,0,2.35-0.229,3.417-0.693c1.066-0.459,1.997-1.088,2.79-1.881
			s1.42-1.727,1.881-2.801C495.399,74.522,495.63,73.379,495.63,72.169z"/>
	</g>
	<g>
		<path fill="#FFFFFF" d="M14.589,3.218c-0.962,0-1.855,0.171-2.677,0.511c-0.822,0.341-1.539,0.823-2.15,1.444
			C9.149,5.795,8.668,6.527,8.317,7.369c-0.351,0.842-0.525,1.755-0.525,2.737c0,0.943,0.17,1.835,0.511,2.677
			c0.341,0.842,0.817,1.584,1.429,2.226c0.611,0.642,1.333,1.148,2.166,1.519c0.832,0.371,1.812,0.562,2.792,0.611
			c1.021,0.051,2.274,0.198,3.407,0.509c1.132,0.312,2.127,0.654,3.17,1.226c1.042,0.572,2.01,1.279,2.903,2.121
			c0.892,0.842,1.669,1.79,2.331,2.842c0.662,1.053,1.183,2.216,1.563,3.489c0.381,1.274,0.572,2.632,0.572,4.076
			c0,0.962-0.126,1.985-0.376,3.068c-0.251,1.083-0.632,2.156-1.143,3.219c-0.512,1.063-1.163,2.075-1.955,3.038
			s-1.721,1.815-2.782,2.557c-1.063,0.742-2.268,1.334-3.61,1.775c-1.344,0.441-2.838,0.662-4.481,0.662
			c-2.146,0-4.097-0.406-5.852-1.218s-3.259-1.875-4.512-3.188s-2.222-2.594-2.903-4.259C0.341,35.391,0,33.12,0,32.18h3.278
			c0,0,0.056,0.799,0.166,1.491s0.32,1.331,0.632,2.122c0.311,0.793,0.727,1.538,1.249,2.339c0.521,0.802,1.192,1.503,2.016,2.155
			c0.822,0.652,1.809,1.17,2.962,1.581c1.153,0.412,2.512,0.61,4.076,0.61c1.423,0,2.797-0.253,4.121-0.755
			c1.323-0.501,2.491-1.224,3.504-2.167c1.012-0.942,1.824-2.096,2.436-3.46c0.611-1.364,0.917-2.908,0.917-4.633
			c0-1.384-0.23-2.743-0.69-4.077c-0.462-1.333-1.148-2.521-2.062-3.563c-0.913-1.042-2.051-1.88-3.415-2.511
			c-1.362-0.632-2.899-0.888-4.678-0.999c-1.501-0.093-2.929-0.376-4.151-1.019c-1.224-0.641-2.274-1.352-3.127-2.344
			c-0.853-0.993-1.515-2.095-1.984-3.309c-0.472-1.213-0.707-2.38-0.707-3.504c0-0.963,0.186-2.035,0.557-3.219
			C5.47,5.735,6.062,4.632,6.874,3.609c0.812-1.023,1.858-1.88,3.144-2.572C11.3,0.345,12.844,0,14.649,0
			c1.385,0,2.598,0.2,3.641,0.601c1.042,0.402,1.935,0.922,2.677,1.564S22.32,3.519,22.801,4.3c0.481,0.782,0.862,1.545,1.143,2.287
			s0.477,1.196,0.586,1.817c0.11,0.622,0.166,1.216,0.166,1.216h-3.278c0,0-0.141-1.351-0.421-2.163
			c-0.281-0.812-0.707-1.436-1.278-2.097c-0.572-0.662-1.284-1.146-2.136-1.567C16.729,3.372,15.732,3.218,14.589,3.218z"/>
		<path fill="#FFFFFF" d="M34.375,31.24c0.02,0,0.115,0.784,0.286,1.525c0.17,0.742,0.436,1.439,0.797,2.312
			c0.36,0.873,0.842,1.705,1.442,2.607c0.603,0.902,1.345,1.693,2.227,2.425s1.935,1.32,3.158,1.791
			c1.223,0.472,2.637,0.7,4.241,0.7c0.902-0.06,1.709-0.169,2.422-0.32c0.711-0.15,1.504-0.392,2.376-0.723
			c0.871-0.331,1.729-0.803,2.57-1.415c0.842-0.611,1.686-1.516,2.407-2.459c0.722-0.942,1.223-1.743,1.624-3.623h3.279
			c-0.402,1.88-0.917,2.822-1.551,3.906c-0.631,1.083-1.327,2.098-2.09,2.9c-0.763,0.802-1.563,1.51-2.406,2.051
			c-0.843,0.542-1.676,1.011-2.497,1.372c-1.926,0.823-3.981,1.303-6.167,1.423c-1.766,0-3.364-0.226-4.799-0.688
			c-1.434-0.462-2.717-1.087-3.85-1.879c-1.133-0.793-2.111-1.71-2.933-2.754c-0.823-1.043-1.504-2.142-2.045-3.296
			c-0.542-1.155-0.943-2.324-1.204-3.508c-0.262-1.185-0.392-2.318-0.392-3.402c0-0.903,0.13-1.901,0.392-2.996
			c0.261-1.095,0.656-2.193,1.188-3.297s1.208-2.178,2.031-3.222c0.822-1.044,1.794-1.967,2.917-2.77
			c1.123-0.803,2.406-1.451,3.85-1.942c1.444-0.492,3.049-0.738,4.813-0.738c1.664,0,3.192,0.221,4.587,0.663
			c1.394,0.442,2.657,1.04,3.791,1.793c1.133,0.754,2.13,1.638,2.993,2.652c0.861,1.015,1.583,2.1,2.166,3.255
			c0.582,1.155,1.018,2.57,1.309,3.806c0.291,1.236,0.437,1.971,0.437,3.851H34.375z M58.349,27.48
			c-0.301-0.94-0.697-2.064-1.188-2.957c-0.492-0.892-1.043-1.606-1.655-2.268c-0.612-0.661-1.263-1.187-1.955-1.638
			c-0.692-0.451-1.369-0.811-2.031-1.112c-1.563-0.681-3.207-1.165-5.053-1.165c-1.752,0-3.489,0.495-5.054,1.177
			c-0.662,0.301-1.338,0.679-2.03,1.13s-1.344,1.009-1.956,1.67c-0.612,0.662-1.163,1.313-1.654,2.205
			c-0.492,0.893-0.887,2.017-1.188,2.957L58.349,27.48L58.349,27.48z"/>
		<path fill="#FFFFFF" d="M94.727,15.041v30.38c0,2.025,0.41,3.795,1.152,5.309c0.742,1.515,1.72,2.769,2.893,3.761
			c1.173,0.993,2.396,1.733,3.87,2.227c1.475,0.49,3.366,0.736,4.306,0.736v3.309c-1.88,0-4.621-0.45-6.566-1.354
			c-1.946-0.902-3.524-2.08-4.848-3.533c-1.323-1.455-2.114-3.094-2.806-4.918c-0.691-1.826-0.819-3.661-0.819-5.505v-5.505
			c-0.661,0.724-1.313,1.364-1.935,1.925c-0.623,0.562-1.358,1.043-2.02,1.443c-0.662,0.402-1.376,0.742-2.05,1.023
			c-0.672,0.281-1.342,0.511-1.963,0.691c-1.442,0.421-2.93,0.662-4.433,0.722c-1.324,0-2.623-0.171-3.887-0.511
			c-1.264-0.341-2.47-0.827-3.613-1.459c-1.143-0.631-2.192-1.398-3.146-2.301c-0.952-0.902-1.779-1.925-2.481-3.068
			c-0.703-1.143-1.249-2.386-1.64-3.729c-0.392-1.343-0.588-2.768-0.588-4.271c0-1.985,0.366-3.9,1.099-5.746
			c0.731-1.845,1.765-3.479,3.099-4.903c1.333-1.424,2.942-2.566,4.828-3.429c1.885-0.862,3.99-1.293,6.317-1.293
			c1.482,0.08,2.947,0.331,4.392,0.751c0.622,0.181,1.263,0.412,1.925,0.692c0.662,0.281,1.323,0.627,1.985,1.038
			c0.661,0.411,1.312,0.893,1.955,1.444c0.642,0.552,1.232,1.299,1.774,2.021v-5.945L94.727,15.041L94.727,15.041z M91.527,30.471
			c0-1.684-0.32-3.259-0.962-4.723c-0.642-1.463-1.509-2.747-2.602-3.85s-2.376-1.97-3.851-2.602
			c-1.474-0.631-3.043-0.947-4.708-0.947c-1.664,0-3.232,0.316-4.708,0.947c-1.474,0.632-2.757,1.5-3.85,2.602
			c-1.093,1.103-1.956,2.387-2.587,3.85c-0.632,1.464-0.947,3.039-0.947,4.723c0,1.665,0.315,3.234,0.947,4.708
			c0.631,1.474,1.494,2.758,2.587,3.851c1.093,1.093,2.376,1.955,3.85,2.587c1.475,0.631,3.044,0.947,4.708,0.947
			s3.233-0.316,4.708-0.947c1.475-0.632,2.758-1.494,3.851-2.587c1.093-1.093,1.96-2.377,2.602-3.851
			C91.206,33.705,91.527,32.136,91.527,30.471z"/>
		<path fill="#FFFFFF" d="M101.307,15.041V30.2c0,1.865,0.235,3.566,0.78,5.083c0.562,1.564,1.496,2.879,2.607,3.961
			c1.113,1.083,2.404,1.833,3.868,2.424c1.463,0.592,2.831,0.822,4.437,0.822c1.123,0,2.27-0.074,3.303-0.396
			c1.033-0.32,1.948-0.736,2.861-1.277c0.912-0.542,1.735-1.168,2.478-1.88c0.741-0.711,1.382-1.464,1.923-2.256
			c0.542-0.792,0.835-1.487,1.067-2.328c0.235-0.852,0.176-1.697,0.176-2.439V15.041h3.76v30.676h-3.76v-5.4
			c-0.494,0.621-0.863,0.963-1.495,1.524c-0.631,0.562-1.166,1.043-1.838,1.444c-0.672,0.401-1.291,0.742-1.972,1.023
			c-0.683,0.281-1.306,0.511-1.926,0.691c-1.484,0.421-2.975,0.662-4.498,0.722c-2.487,0-4.686-0.451-6.61-1.354
			c-1.925-0.902-3.633-2.028-4.957-3.493c-1.324-1.463-2.333-3.021-3.025-4.876c-0.69-1.855-0.939-3.894-0.939-5.799v-15.16h3.761
			V15.041z"/>
		<path fill="#FFFFFF" d="M134.207,31.24c0.02,0,0.027,0.784,0.197,1.525c0.171,0.741,0.437,1.439,0.798,2.312
			c0.36,0.873,0.842,1.705,1.442,2.607c0.603,0.902,1.344,1.693,2.227,2.425c0.882,0.732,1.935,1.32,3.157,1.791
			c1.225,0.472,2.638,0.7,4.242,0.7c0.902-0.06,1.709-0.169,2.421-0.32c0.711-0.15,1.504-0.392,2.376-0.723s1.697-0.819,2.54-1.431
			c0.843-0.611,1.6-1.392,2.32-2.335c0.722-0.942,1.249-2.086,1.743-3.731h3.279c-0.401,1.88-0.88,2.971-1.512,4.054
			s-1.367,1.95-2.129,2.752c-0.762,0.802-1.563,1.51-2.407,2.051c-0.842,0.542-1.675,1.011-2.496,1.372
			c-1.926,0.823-3.981,1.303-6.168,1.423c-1.765,0-3.363-0.226-4.798-0.688c-1.434-0.462-2.717-1.087-3.85-1.879
			c-1.133-0.793-2.111-1.71-2.933-2.754c-0.823-1.043-1.505-2.142-2.046-3.296c-0.542-1.155-0.942-2.324-1.202-3.508
			c-0.262-1.185-0.392-2.318-0.392-3.402c0-0.903,0.13-1.901,0.392-2.996c0.26-1.094,0.656-2.193,1.188-3.297
			s1.208-2.178,2.031-3.222c0.822-1.044,1.794-1.967,2.917-2.77c1.123-0.803,2.406-1.451,3.85-1.942
			c1.444-0.492,3.048-0.738,4.813-0.738c1.664,0,3.192,0.221,4.587,0.663c1.394,0.442,2.657,1.04,3.791,1.793
			c1.133,0.754,2.13,1.638,2.993,2.652c0.861,1.015,1.583,2.1,2.166,3.255c0.582,1.155,1.018,2.57,1.309,3.806
			c0.291,1.236,0.437,1.971,0.437,3.851H134.207z M158.093,27.48c-0.301-0.94-0.697-2.064-1.188-2.957
			c-0.491-0.892-1.043-1.606-1.654-2.268c-0.612-0.661-1.264-1.187-1.955-1.638c-0.692-0.451-1.369-0.811-2.031-1.112
			c-1.563-0.681-3.249-1.064-5.053-1.165c-1.806,0.101-3.489,0.495-5.054,1.177c-0.662,0.301-1.339,0.679-2.03,1.13
			c-0.692,0.451-1.343,1.009-1.955,1.67c-0.612,0.662-1.035,1.304-1.526,2.195c-0.492,0.893-0.933,2.027-1.233,2.967L158.093,27.48
			L158.093,27.48z"/>
		<path fill="#FFFFFF" d="M167.106,20.753c0.628-0.732,1.059-1.278,1.771-1.96c0.711-0.682,1.635-1.322,2.68-1.903
			c0.947-0.527,2.04-0.945,3.363-1.366s2.91-0.484,4.494-0.484c2.046,0,4.322,0.26,6.197,1.042s3.243,1.629,4.678,3.003
			c1.434,1.374,2.73,2.988,3.584,4.843c0.852,1.854,1.314,3.933,1.314,6.058v15.73h-3.643V29.869c0-1.324-0.217-2.692-0.708-4.106
			c-0.49-1.414-1.229-2.697-2.239-3.85c-1.011-1.153-2.271-2.101-3.793-2.843c-1.521-0.741-3.302-1.113-5.345-1.113
			c-1.381,0-2.637,0.181-3.77,0.541c-1.132,0.361-2.146,0.838-3.048,1.429c-0.901,0.591-1.687,1.263-2.357,2.015
			c-0.672,0.752-1.231,1.514-1.683,2.286s-0.768,1.53-0.988,2.272c-0.22,0.742-0.318,1.358-0.318,1.919c0,0,0,17.234,0,17.297h-3.01
			V15.041l2.819-0.015V20.753z"/>
		<path fill="#FFFFFF" d="M223.396,24.66c-0.442-0.812-0.892-1.396-1.414-2.028c-0.521-0.631-1.078-1.102-1.669-1.563
			c-0.593-0.46-1.192-0.808-1.805-1.119c-0.613-0.311-1.199-0.557-1.761-0.778c-1.345-0.481-2.737-0.752-4.182-0.833
			c-1.886,0-3.569,0.366-5.054,1.089c-1.484,0.723-2.743,1.669-3.774,2.833c-1.033,1.165-1.825,2.476-2.377,3.931
			c-0.551,1.456-0.826,2.907-0.826,4.353c0,1.446,0.279,2.887,0.841,4.322c0.562,1.435,1.363,2.726,2.407,3.871
			c1.042,1.144,2.306,2.073,3.788,2.786c1.484,0.712,3.149,1.069,4.994,1.069c1.403-0.06,2.776-0.331,4.12-0.812
			c0.562-0.2,1.147-0.456,1.761-0.767c0.611-0.311,1.214-0.697,1.806-1.158c0.591-0.461,1.205-1.023,1.746-1.645
			c0.542-0.621,0.977-1.331,1.396-2.271h3.31c-0.338,1.038-0.953,2.329-1.596,3.251c-0.641,0.923-1.333,1.756-2.075,2.438
			c-0.742,0.682-1.514,1.271-2.315,1.738c-0.802,0.467-1.595,0.857-2.377,1.154c-1.845,0.696-3.78,1.096-5.805,1.195
			c-1.806,0-3.43-0.238-4.873-0.72c-1.444-0.482-2.729-1.128-3.852-1.941c-1.123-0.812-2.09-1.741-2.902-2.785
			c-0.812-1.043-1.479-2.128-2-3.252c-0.521-1.124-0.907-2.248-1.158-3.372c-0.251-1.125-0.376-2.158-0.376-3.102
			c0-0.943,0.121-1.977,0.36-3.101c0.241-1.124,0.622-2.258,1.145-3.402c0.521-1.144,1.182-2.243,1.983-3.297
			c0.803-1.054,1.766-1.993,2.889-2.815c1.123-0.823,2.411-1.48,3.865-1.972c1.453-0.492,3.093-0.738,4.918-0.738
			c2.064,0.122,4.02,0.537,5.864,1.245c0.782,0.305,1.579,0.695,2.393,1.17c0.812,0.476,1.583,1.055,2.314,1.736
			c0.731,0.682,1.409,1.332,2.031,2.253c0.621,0.922,1.108,1.899,1.564,3.036L223.396,24.66L223.396,24.66z"/>
		<path fill="#FFFFFF" d="M283.487,0.573c2.064,0,6.818,0.206,8.806,0.702c1.939,0.485,3.739,1.249,5.444,2.231
			c1.703,0.983,3.258,2.138,4.662,3.522c1.404,1.384,2.606,2.909,3.609,4.604c1.002,1.695,1.782,3.502,2.346,5.438
			c0.562,1.936,0.843,3.952,0.843,6.058c0,2.085-0.267,4.1-0.797,6.044c-0.532,1.945-1.289,3.77-2.271,5.474
			c-0.984,1.705-2.162,3.258-3.535,4.662c-1.375,1.404-2.902,2.607-4.588,3.609c-1.693,1.009-3.472,1.808-5.439,2.249
			c-1.981,0.444-6.836,0.529-8.961,0.529h-2.76V0.573H283.487z M305.948,23.213c0-2.266-0.306-4.326-0.917-6.182
			c-0.611-1.854-1.429-3.504-2.451-4.948c-1.023-1.444-2.196-2.697-3.519-3.76c-1.324-1.063-2.703-1.945-4.137-2.647
			c-1.434-0.702-2.697-1.081-4.12-1.432c-1.425-0.351-5.259-0.479-7.138-0.5V42.46c1.879-0.02,6.225-0.117,7.754-0.411
			c1.528-0.294,3.203-0.993,4.623-1.797c1.435-0.812,2.778-1.8,3.981-2.963s2.255-2.467,3.127-3.911
			c0.872-1.444,1.561-3.023,2.053-4.738C305.696,26.928,305.948,25.118,305.948,23.213z"/>
		<path fill="#FFFFFF" d="M316.566,15.041v30.676h-3.76V15.041H316.566z"/>
		<path fill="#FFFFFF" d="M350.406,15.041v30.676h-2.819v-6.075c-0.687,0.901-1.351,1.608-1.972,2.169
			c-0.622,0.562-1.375,1.048-2.039,1.458c-0.66,0.412-1.385,0.757-2.055,1.038c-0.672,0.281-1.349,0.511-1.969,0.691
			c-1.465,0.421-2.963,0.662-4.467,0.722c-1.426,0-2.793-0.189-4.099-0.571c-1.303-0.38-2.524-0.906-3.658-1.577
			c-1.133-0.672-2.162-1.479-3.084-2.419c-0.924-0.941-1.713-1.979-2.362-3.11c-0.651-1.131-1.158-2.339-1.521-3.621
			c-0.359-1.282-0.542-2.604-0.542-3.967c0-1.363,0.183-2.685,0.542-3.967c0.362-1.282,0.868-2.489,1.521-3.621
			c0.648-1.131,1.438-2.168,2.36-3.11c0.921-0.942,1.949-1.748,3.082-2.419c1.134-0.671,2.355-1.197,3.67-1.578
			c1.312-0.38,2.691-0.571,4.138-0.571c1.504,0.06,2.985,0.301,4.451,0.722c0.62,0.18,1.264,0.411,1.925,0.692
			c0.663,0.281,1.322,0.627,1.985,1.038c0.661,0.412,1.544,0.979,2.167,1.54c0.622,0.562,1.292,1.249,1.925,1.983V15.04
			L350.406,15.041L350.406,15.041z M347.226,30.456c0-1.667-0.316-3.237-0.947-4.713c-0.633-1.476-1.495-2.761-2.588-3.855
			c-1.092-1.094-2.375-1.962-3.85-2.605c-1.476-0.643-3.044-0.964-4.707-0.964c-1.687,0-3.261,0.321-4.726,0.964
			c-1.463,0.643-2.746,1.511-3.85,2.605c-1.104,1.094-1.97,2.379-2.603,3.855c-0.631,1.476-0.946,3.046-0.946,4.713
			s0.315,3.238,0.946,4.714c0.633,1.476,1.498,2.766,2.603,3.87c1.104,1.105,2.387,1.973,3.85,2.605
			c1.465,0.632,3.039,0.949,4.726,0.949c1.663,0,3.231-0.316,4.707-0.949c1.475-0.633,2.758-1.5,3.85-2.605
			c1.093-1.104,1.955-2.394,2.588-3.87C346.908,33.693,347.226,32.123,347.226,30.456z"/>
		<path fill="#FFFFFF" d="M384.246,15.041v31.553c0,1.058-0.054,2.087-0.411,3.123c-0.337,0.974-0.755,1.919-1.321,2.88
			c-0.604,1.019-1.41,2.031-2.263,3.025c-0.853,0.992-1.872,1.803-3.025,2.584c-1.154,0.782-2.521,1.379-3.994,1.852
			c-1.473,0.471-3.085,0.703-4.965,0.703v-3.289c0.938,0,2.715-0.285,3.877-0.646c1.164-0.361,2.27-0.877,3.173-1.47
			c0.903-0.592,1.708-1.353,2.38-2.113c0.672-0.764,1.154-1.471,1.586-2.264c0.433-0.791,0.729-1.47,0.939-2.231
			c0.21-0.763,0.266-1.572,0.266-2.153v-6.738c-0.687,0.96-1.086,1.424-1.696,1.985c-0.611,0.562-1.24,1.053-1.894,1.474
			c-0.652,0.421-1.312,0.778-1.986,1.068c-0.672,0.291-1.315,0.526-1.938,0.707c-1.465,0.441-2.948,0.692-4.451,0.752
			c-2.167,0-4.203-0.391-6.106-1.173c-1.905-0.782-3.57-1.865-4.993-3.249c-1.425-1.384-2.546-3.018-3.369-4.903
			c-0.822-1.885-1.233-3.93-1.233-6.136c0-2.186,0.411-4.226,1.233-6.122c0.823-1.895,1.939-3.534,3.354-4.918
			c1.414-1.383,3.052-2.484,4.935-3.263c1.832-0.759,3.89-1.037,6.014-1.037c1.485,0.06,3.173,0.234,4.408,0.601
			c0.619,0.184,1.271,0.417,1.955,0.707c0.682,0.291,1.358,0.646,2.031,1.068c0.672,0.421,1.326,0.922,1.97,1.504
			c0.641,0.582,1.254,1.393,1.774,2.171v-6.05h3.752V15.041z M380.553,30.411c0-1.685-0.319-3.274-0.962-4.768
			c-0.644-1.494-1.516-2.792-2.616-3.896c-1.104-1.103-2.397-1.975-3.882-2.617c-1.482-0.642-3.067-0.963-4.753-0.963
			c-1.684,0-3.28,0.307-4.768,0.963c-1.436,0.633-2.865,1.573-3.895,2.617c-1.096,1.111-1.978,2.402-2.619,3.896
			c-0.641,1.494-0.961,3.083-0.961,4.768s0.32,3.274,0.961,4.768c0.643,1.494,1.516,2.793,2.619,3.896
			c1.102,1.103,2.399,1.976,3.895,2.617c1.493,0.642,3.084,0.962,4.768,0.962c1.686,0,3.271-0.321,4.753-0.962
			c1.483-0.642,2.778-1.513,3.882-2.617c1.102-1.103,1.974-2.401,2.616-3.896C380.233,33.685,380.553,32.095,380.553,30.411z"/>
		<path fill="#FFFFFF" d="M390.826,15.025v5.038c0.441-0.555,0.866-1.011,1.498-1.542c0.631-0.531,1.205-0.941,1.878-1.333
			c0.672-0.391,1.487-0.82,2.19-1.091c0.701-0.271,1.67-0.564,2.423-0.705c0.989-0.185,2.351-0.272,4.229-0.352v3.005
			c-1.675,0-2.945,0.18-4.13,0.542c-1.183,0.361-2.284,0.832-3.206,1.414c-0.923,0.582-1.734,1.244-2.387,1.985
			c-0.65,0.742-1.195,1.479-1.605,2.211c-0.411,0.732-0.617,1.418-0.754,2.104c-0.121,0.608-0.138,1.238-0.138,1.7v17.714h-3.761
			V15.025H390.826z"/>
		<path fill="#FFFFFF" d="M435.946,15.041v30.676h-3.76V40.21c-0.479,0.638-0.887,1.084-1.508,1.645
			c-0.621,0.562-1.213,1.004-1.875,1.415c-0.662,0.412-1.282,0.757-1.952,1.038c-0.673,0.281-1.296,0.511-1.917,0.691
			c-1.465,0.421-2.938,0.662-4.439,0.722c-1.426,0-2.78-0.19-4.084-0.571c-1.305-0.38-2.521-0.906-3.652-1.577
			c-1.133-0.672-2.16-1.479-3.081-2.419c-0.924-0.941-1.711-1.979-2.361-3.11c-0.649-1.131-1.156-2.339-1.519-3.621
			c-0.36-1.282-0.542-2.604-0.542-3.967c0-1.363,0.182-2.685,0.542-3.967c0.361-1.282,0.867-2.489,1.521-3.621
			c0.649-1.131,1.438-2.168,2.361-3.11c0.921-0.942,1.949-1.748,3.082-2.419s2.354-1.197,3.67-1.578
			c1.312-0.38,2.69-0.571,4.137-0.571c1.504,0.06,2.986,0.301,4.451,0.722c0.621,0.18,1.264,0.411,1.925,0.692
			c0.663,0.281,1.323,0.627,1.986,1.038c0.661,0.412,1.227,0.8,1.832,1.378c0.646,0.617,1.007,1.016,1.425,1.674V15.04
			L435.946,15.041L435.946,15.041z M432.658,30.456c0-1.667-0.315-3.237-0.947-4.713c-0.633-1.476-1.494-2.761-2.588-3.855
			c-1.092-1.094-2.375-1.962-3.85-2.605c-1.475-0.643-3.044-0.964-4.707-0.964c-1.686,0-3.26,0.321-4.725,0.964
			c-1.463,0.643-2.746,1.511-3.851,2.605c-1.104,1.094-1.971,2.379-2.602,3.855c-0.631,1.476-0.947,3.046-0.947,4.713
			s0.316,3.238,0.947,4.714s1.498,2.766,2.602,3.87c1.104,1.105,2.388,1.973,3.851,2.605c1.465,0.632,3.039,0.949,4.725,0.949
			c1.663,0,3.232-0.316,4.707-0.949s2.758-1.5,3.85-2.605c1.094-1.104,1.955-2.394,2.588-3.87
			C432.343,33.693,432.658,32.123,432.658,30.456z"/>
		<path fill="#FFFFFF" d="M468.651,23.524c0.201-0.481,0.572-1.244,1.003-1.89c0.407-0.612,0.872-1.278,1.483-1.91
			c0.61-0.631,1.391-1.292,2.184-1.894c0.791-0.602,2.297-1.414,3.79-1.944c1.489-0.529,3.311-0.846,5.277-0.846
			c1.924,0,3.825,0.261,5.688,1.003c1.865,0.742,3.552,1.633,5.015,2.977s2.631,2.853,3.532,4.728
			c0.902,1.875,1.363,3.946,1.363,6.211v15.758h-3.761V29.869c0-1.424-0.073-2.848-0.626-4.271c-0.551-1.423-1.252-2.707-2.305-3.85
			c-1.054-1.143-2.286-2.071-3.8-2.783c-1.515-0.711-3.211-1.067-5.135-1.067c-1.845,0-3.497,0.346-4.979,1.038
			c-1.483,0.692-2.751,1.599-3.814,2.723c-1.062,1.123-1.769,2.358-2.217,3.834c-0.373,1.228-0.624,2.883-0.624,4.347v15.878h-3.76
			V29.809c0-1.264-0.256-2.592-0.729-3.986c-0.47-1.394-1.213-2.677-2.205-3.85c-0.992-1.173-2.271-2.146-3.824-2.917
			c-1.555-0.772-3.407-1.158-5.553-1.158c-1.465,0-2.785,0.201-3.958,0.601c-1.173,0.402-2.205,0.923-3.097,1.564
			c-0.896,0.642-1.661,1.359-2.304,2.151c-0.642,0.792-1.205,1.684-1.616,2.466c-0.412,0.782-1.156,2.448-1.156,3.776v17.261h-3.76
			V15.041h3.76v5.448c0.506-0.783,1.207-1.413,1.959-2.075c0.75-0.662,1.41-1.108,2.463-1.699c1.053-0.591,2.004-0.947,3.334-1.292
			c1.072-0.279,2.939-0.381,4.463-0.381c1.264,0,2.854,0.15,3.968,0.44c1.114,0.291,1.857,0.557,2.819,1.028
			c0.962,0.471,1.79,1.014,2.57,1.615c0.782,0.602,1.445,1.112,2.057,1.733c0.612,0.621,1.072,1.161,1.482,1.762
			C468.054,22.222,468.45,23.043,468.651,23.524z"/>
		<path fill="#7CC6E3" d="M312.541,2.436c0-0.682,0.237-1.258,0.707-1.729c0.473-0.471,1.05-0.707,1.73-0.707
			c0.683,0,1.259,0.236,1.729,0.707c0.473,0.472,0.71,1.048,0.71,1.729c0,0.682-0.237,1.259-0.71,1.729
			c-0.471,0.471-1.047,0.707-1.729,0.707c-0.681,0-1.258-0.236-1.729-0.707C312.779,3.695,312.541,3.118,312.541,2.436z"/>
		<path fill="#7CC6E3" d="M312.541,2.436c0-0.682,0.237-1.258,0.707-1.729c0.473-0.471,1.05-0.707,1.73-0.707
			c0.683,0,1.259,0.236,1.729,0.707c0.473,0.472,0.71,1.048,0.71,1.729c0,0.682-0.237,1.259-0.71,1.729
			c-0.471,0.471-1.047,0.707-1.729,0.707c-0.681,0-1.258-0.236-1.729-0.707C312.779,3.695,312.541,3.118,312.541,2.436z"/>
		<path fill="#FFFFFF" d="M232.231,31.24c0.021,0,0.062,0.752,0.162,1.483c0.104,0.754,0.386,1.481,0.746,2.354
			c0.361,0.873,0.842,1.705,1.444,2.607c0.601,0.902,1.343,1.693,2.225,2.425c0.883,0.732,1.936,1.32,3.159,1.791
			c1.224,0.472,2.637,0.7,4.242,0.7c0.9-0.06,1.709-0.169,2.422-0.32c0.71-0.15,1.503-0.392,2.375-0.723s1.697-0.819,2.539-1.431
			c0.843-0.611,1.599-1.392,2.321-2.335c0.722-0.942,1.201-1.917,1.741-3.731h3.279c-0.402,1.88-0.879,2.971-1.512,4.054
			c-0.631,1.083-1.365,1.95-2.128,2.752c-0.764,0.802-1.563,1.51-2.407,2.051c-0.842,0.542-1.674,1.011-2.496,1.372
			c-1.925,0.823-3.979,1.303-6.167,1.423c-1.764,0-3.363-0.226-4.797-0.688c-1.435-0.462-2.717-1.087-3.851-1.879
			c-1.133-0.793-2.11-1.71-2.933-2.754c-0.822-1.043-1.504-2.142-2.045-3.296c-0.542-1.155-0.943-2.324-1.204-3.508
			c-0.261-1.185-0.391-2.318-0.391-3.402c0-0.903,0.13-1.901,0.391-2.996s0.657-2.193,1.188-3.297
			c0.53-1.104,1.208-2.178,2.029-3.222c0.823-1.044,1.795-1.967,2.918-2.77c1.123-0.803,2.406-1.451,3.851-1.942
			c1.443-0.492,3.049-0.738,4.812-0.738c1.665,0,3.193,0.221,4.587,0.663c1.394,0.442,2.657,1.04,3.79,1.793
			c1.134,0.754,2.13,1.638,2.993,2.652c0.862,1.015,1.584,2.1,2.166,3.255c0.581,1.155,1.019,2.57,1.31,3.806
			c0.291,1.236,0.436,1.971,0.436,3.851H232.231z M255.585,27.48c-0.146-0.969-0.704-2.51-1.174-3.399
			c-0.502-0.948-1.677-2.344-2.455-2.99c-0.762-0.632-2.029-1.427-3.011-1.855c-1.362-0.596-2.897-0.937-4.84-0.937
			c-1.915,0-3.444,0.309-4.97,1.074c-1.506,0.756-2.561,1.688-3.173,2.35c-0.612,0.662-1.466,1.752-1.958,2.644
			c-0.491,0.893-0.952,2.174-1.253,3.114L255.585,27.48L255.585,27.48z"/>
	</g>
	<g>
		<polygon fill="#FFFFFF" points="112.447,60.761 106.947,60.761 104.806,60.604 104.327,57.454 106.947,57.454 112.447,57.454 		
			"/>
		<path fill="#FFFFFF" d="M359.54,60.761h-11.324v-3.307h11.324V60.761z M343.067,60.761h-11.324v-3.307h11.324V60.761z
			 M326.595,60.761H315.27v-3.307h11.325V60.761z M310.121,60.761h-11.324v-3.307h11.324V60.761z M293.649,60.761h-11.325v-3.307
			h11.325V60.761z M277.176,60.761h-11.325v-3.307h11.325V60.761z M260.703,60.761h-11.325v-3.307h11.325V60.761z M244.23,60.761
			h-11.325v-3.307h11.325V60.761z M227.757,60.761h-11.325v-3.307h11.325V60.761z M211.285,60.761H199.96v-3.307h11.325V60.761z
			 M194.812,60.761h-11.325v-3.307h11.325V60.761z M178.339,60.761h-11.325v-3.307h11.325V60.761z M161.866,60.761h-11.325v-3.307
			h11.325V60.761z M145.393,60.761h-11.325v-3.307h11.325V60.761z M128.92,60.761h-11.325v-3.307h11.325V60.761z"/>
		<polygon fill="#FFFFFF" points="373.353,59.513 368.267,60.761 364.688,60.761 364.688,57.454 368.267,57.454 370.188,57.454 		
			"/>
	</g>
</g>
</svg>
