<?xml version="1.0" encoding="utf-8"?>
<!-- Generator: Adobe Illustrator 16.0.0, SVG Export Plug-In . SVG Version: 6.00 Build 0)  -->
<!DOCTYPE svg PUBLIC "-//W3C//DTD SVG 1.1//EN" "http://www.w3.org/Graphics/SVG/1.1/DTD/svg11.dtd">
<svg version="1.1" id="Layer_1" xmlns="http://www.w3.org/2000/svg" xmlns:xlink="http://www.w3.org/1999/xlink" x="0px" y="0px"
	 width="300px" height="102.2px" viewBox="0 0 300 102.2" enable-background="new 0 0 300 102.2" xml:space="preserve">
<rect fill="#1A1A1A" width="300" height="102"/>
<g>
	
		<line fill="none" stroke="#262626" stroke-width="2" stroke-miterlimit="10" stroke-dasharray="7,2" x1="30.865" y1="0.2" x2="30.865" y2="69.2"/>
	
		<line fill="none" stroke="#262626" stroke-width="2" stroke-miterlimit="10" stroke-dasharray="7,2" x1="119.865" y1="0.2" x2="119.865" y2="69.2"/>
	<g>
		<path fill="#262626" d="M64.615,13.435V9.186c0-0.223,0.173-0.396,0.396-0.396c0.223,0,0.403,0.172,0.403,0.396v1.729h1.865V9.186
			c0-0.223,0.173-0.396,0.396-0.396s0.403,0.172,0.403,0.396v4.249c0,0.223-0.18,0.396-0.403,0.396s-0.396-0.173-0.396-0.396v-1.728
			h-1.865v1.728c0,0.223-0.18,0.396-0.403,0.396C64.788,13.831,64.615,13.658,64.615,13.435z"/>
		<path fill="#262626" d="M69.389,12.031c0.007-0.979,0.771-1.8,1.757-1.8c0.936,0,1.677,0.698,1.735,1.67c0,0.007,0,0.021,0,0.036
			c0,0.014,0,0.05-0.007,0.064c-0.021,0.173-0.173,0.288-0.374,0.288h-2.29c0.036,0.166,0.115,0.353,0.245,0.475
			c0.151,0.173,0.438,0.303,0.691,0.324c0.259,0.021,0.568-0.043,0.749-0.18c0.151-0.158,0.447-0.137,0.54-0.022
			c0.094,0.101,0.166,0.317,0,0.468c-0.353,0.324-0.777,0.475-1.288,0.475C70.159,13.824,69.396,13.01,69.389,12.031z
			 M70.174,11.678h2.037c-0.072-0.288-0.439-0.713-1.065-0.763C70.534,10.943,70.231,11.383,70.174,11.678z"/>
		<path fill="#262626" d="M74.472,8.791c0.223,0,0.403,0.18,0.403,0.396v4.249c0,0.216-0.18,0.396-0.403,0.396
			c-0.216,0-0.396-0.18-0.396-0.396V9.186C74.076,8.97,74.256,8.791,74.472,8.791z"/>
		<path fill="#262626" d="M76.265,8.791c0.223,0,0.403,0.18,0.403,0.396v4.249c0,0.216-0.18,0.396-0.403,0.396
			c-0.216,0-0.396-0.18-0.396-0.396V9.186C75.869,8.97,76.048,8.791,76.265,8.791z"/>
		<path fill="#262626" d="M77.942,13.305c-0.309-0.317-0.497-0.764-0.497-1.268c0-0.49,0.188-0.915,0.497-1.26
			c0.324-0.338,0.742-0.547,1.239-0.547c0.475,0,0.907,0.209,1.203,0.547c0.324,0.345,0.504,0.77,0.504,1.26
			c0,0.504-0.18,0.951-0.504,1.268c-0.295,0.338-0.728,0.547-1.203,0.547C78.684,13.853,78.266,13.644,77.942,13.305z M78.23,12.038
			c0,0.31,0.094,0.562,0.259,0.764c0.18,0.172,0.418,0.266,0.691,0.266c0.252,0,0.482-0.094,0.662-0.266
			c0.18-0.202,0.281-0.454,0.281-0.764c0-0.295-0.101-0.554-0.281-0.749c-0.18-0.159-0.41-0.274-0.662-0.274
			c-0.273,0-0.511,0.115-0.691,0.274C78.324,11.483,78.23,11.742,78.23,12.038z"/>
		<path fill="#262626" d="M82.111,12.095V9.186c0-0.216,0.18-0.396,0.396-0.396c0.215,0,0.388,0.18,0.388,0.396v2.909
			c0,0.223-0.173,0.396-0.388,0.396C82.291,12.491,82.111,12.318,82.111,12.095z M82.507,13.831c-0.216,0-0.396-0.173-0.396-0.396
			v-0.144c0-0.216,0.18-0.396,0.396-0.396c0.215,0,0.388,0.18,0.388,0.396v0.144C82.896,13.658,82.723,13.831,82.507,13.831z"/>
	</g>
	<line fill="none" stroke="#262626" stroke-width="2" stroke-miterlimit="10" x1="29.865" y1="20.2" x2="114.865" y2="20.2"/>
	<polygon fill="#262626" points="109.865,23.013 109.865,17.013 118.865,20.013 	"/>
	<rect x="13.365" y="69.7" fill="none" stroke="#262626" stroke-miterlimit="10" width="35" height="18"/>
	
		<line fill="none" stroke="#262626" stroke-width="2" stroke-miterlimit="10" stroke-dasharray="7,2" x1="30.865" y1="88.2" x2="30.865" y2="102.2"/>
	
		<line fill="none" stroke="#262626" stroke-width="2" stroke-miterlimit="10" stroke-dasharray="7,2" x1="119.865" y1="88.2" x2="119.865" y2="102.2"/>
	<g>
		<path fill="#262626" d="M25.209,79.525h-1.75l-0.353,0.936c-0.065,0.158-0.216,0.252-0.375,0.252c-0.05,0-0.094-0.007-0.137-0.021
			c-0.209-0.08-0.31-0.31-0.238-0.519l1.591-4.241c0.065-0.159,0.223-0.259,0.382-0.252c0.166-0.007,0.317,0.093,0.381,0.252
			l1.591,4.241c0.072,0.208-0.028,0.439-0.237,0.519c-0.036,0.014-0.086,0.021-0.137,0.021c-0.159,0-0.31-0.094-0.368-0.252
			L25.209,79.525z M24.914,78.732l-0.583-1.548l-0.583,1.548H24.914z"/>
		<path fill="#262626" d="M27.657,75.672c0.223,0,0.403,0.18,0.403,0.396v4.249c0,0.216-0.18,0.396-0.403,0.396
			c-0.216,0-0.396-0.18-0.396-0.396v-4.249C27.261,75.853,27.441,75.672,27.657,75.672z"/>
		<path fill="#262626" d="M29.788,76.212c0,0.216-0.166,0.396-0.389,0.396c-0.216,0-0.389-0.18-0.389-0.396v-0.151
			c0-0.216,0.172-0.389,0.389-0.389c0.223,0,0.389,0.173,0.389,0.389V76.212z M29.788,77.516v2.809c0,0.216-0.166,0.389-0.389,0.389
			c-0.216,0-0.389-0.173-0.389-0.389v-2.809c0-0.23,0.172-0.396,0.389-0.396C29.622,77.12,29.788,77.285,29.788,77.516z"/>
		<path fill="#262626" d="M30.774,78.92c0-1.001,0.835-1.8,1.829-1.808c0.432,0,0.835,0.158,1.145,0.396
			c0.166,0.129,0.194,0.374,0.079,0.532c-0.144,0.173-0.375,0.202-0.54,0.072c-0.187-0.137-0.417-0.23-0.684-0.23
			c-0.583,0-1.065,0.482-1.065,1.037s0.482,1.03,1.065,1.03c0.259,0,0.497-0.094,0.684-0.23c0.158-0.123,0.396-0.094,0.54,0.079
			c0.115,0.158,0.086,0.389-0.079,0.533c-0.31,0.223-0.713,0.382-1.145,0.382C31.609,80.713,30.774,79.906,30.774,78.92z"/>
		<path fill="#262626" d="M34.885,78.913c0.007-0.979,0.771-1.8,1.757-1.8c0.937,0,1.678,0.699,1.736,1.671c0,0.007,0,0.021,0,0.036
			c0,0.015,0,0.051-0.007,0.065c-0.022,0.173-0.173,0.288-0.375,0.288h-2.29c0.036,0.166,0.115,0.353,0.245,0.476
			c0.151,0.173,0.439,0.302,0.691,0.324c0.259,0.021,0.569-0.043,0.749-0.18c0.151-0.158,0.446-0.137,0.54-0.021
			c0.094,0.101,0.166,0.316,0,0.468c-0.353,0.324-0.778,0.475-1.289,0.475C35.656,80.706,34.893,79.892,34.885,78.913z M35.67,78.56
			h2.038c-0.072-0.288-0.439-0.712-1.066-0.763C36.03,77.825,35.728,78.265,35.67,78.56z"/>
	</g>
	<rect x="102.365" y="69.7" fill="none" stroke="#262626" stroke-miterlimit="10" width="34" height="18"/>
	<g>
		<path fill="#262626" d="M113.451,80.317v-4.249c0-0.223,0.18-0.396,0.396-0.396c0.007,0,0.007,0,0.021,0c0,0,0,0,0.007,0h0.994
			c0.756,0,1.368,0.612,1.368,1.368c0,0.31-0.101,0.59-0.274,0.821c0.432,0.273,0.728,0.756,0.728,1.303
			c0,0.857-0.691,1.548-1.541,1.548h-1.274c-0.007,0-0.007-0.007-0.007-0.007c-0.014,0-0.014,0.007-0.021,0.007
			C113.631,80.713,113.451,80.533,113.451,80.317z M114.25,77.624h0.619c0.317,0,0.569-0.266,0.569-0.583s-0.252-0.569-0.569-0.569
			h-0.619V77.624z M114.25,79.914h0.9c0.411-0.007,0.742-0.332,0.742-0.749c0-0.41-0.331-0.734-0.742-0.742h-0.9V79.914z"/>
		<path fill="#262626" d="M117.979,80.187c-0.31-0.316-0.497-0.763-0.497-1.267c0-0.49,0.188-0.915,0.497-1.26
			c0.324-0.338,0.742-0.547,1.238-0.547c0.475,0,0.907,0.209,1.203,0.547c0.324,0.346,0.504,0.771,0.504,1.26
			c0,0.504-0.18,0.951-0.504,1.267c-0.295,0.338-0.728,0.547-1.203,0.547C118.721,80.734,118.304,80.525,117.979,80.187z
			 M118.268,78.92c0,0.31,0.094,0.562,0.259,0.763c0.18,0.173,0.417,0.267,0.691,0.267c0.252,0,0.482-0.094,0.663-0.267
			c0.18-0.202,0.281-0.454,0.281-0.763c0-0.295-0.101-0.555-0.281-0.749c-0.18-0.158-0.411-0.273-0.663-0.273
			c-0.273,0-0.511,0.115-0.691,0.273C118.361,78.365,118.268,78.625,118.268,78.92z"/>
		<path fill="#262626" d="M122.148,78.92c0-0.007,0-0.007,0-0.007v-2.851c0-0.209,0.173-0.389,0.389-0.389
			c0.223,0,0.396,0.18,0.396,0.389v1.354c0.266-0.188,0.612-0.303,0.965-0.303c0.972,0,1.75,0.821,1.75,1.808
			c0,0.972-0.777,1.793-1.75,1.793c-0.36,0-0.706-0.123-0.979-0.31c-0.036,0.173-0.187,0.31-0.381,0.31
			c-0.216,0-0.389-0.18-0.389-0.389V78.92z M122.933,78.92c0,0.273,0.108,0.533,0.288,0.713c0.18,0.188,0.411,0.295,0.677,0.295
			c0.259,0,0.497-0.107,0.677-0.295c0.18-0.18,0.288-0.439,0.288-0.713c0-0.288-0.108-0.547-0.288-0.728
			c-0.18-0.187-0.417-0.295-0.677-0.295c-0.266,0-0.497,0.108-0.677,0.295C123.041,78.373,122.933,78.632,122.933,78.92z"/>
	</g>
	
		<line fill="none" stroke="#262626" stroke-width="2" stroke-miterlimit="10" stroke-dasharray="7,2" x1="180.865" y1="0.2" x2="180.865" y2="11.2"/>
	
		<line fill="none" stroke="#262626" stroke-width="2" stroke-miterlimit="10" stroke-dasharray="7,2" x1="269.865" y1="0.2" x2="269.865" y2="11.2"/>
	<rect x="163.365" y="10.7" fill="none" stroke="#262626" stroke-miterlimit="10" width="35" height="19"/>
	
		<line fill="none" stroke="#262626" stroke-width="2" stroke-miterlimit="10" stroke-dasharray="7,2" x1="180.865" y1="29.2" x2="180.865" y2="102.2"/>
	
		<line fill="none" stroke="#262626" stroke-width="2" stroke-miterlimit="10" stroke-dasharray="7,2" x1="269.865" y1="29.2" x2="269.865" y2="102.2"/>
	<g>
		<path fill="#262626" d="M175.209,21.025h-1.75l-0.353,0.936c-0.065,0.158-0.216,0.252-0.375,0.252
			c-0.05,0-0.094-0.007-0.137-0.021c-0.209-0.08-0.31-0.31-0.238-0.519l1.591-4.241c0.065-0.159,0.223-0.259,0.382-0.252
			c0.166-0.007,0.317,0.093,0.381,0.252l1.591,4.241c0.072,0.208-0.028,0.439-0.237,0.519c-0.036,0.014-0.086,0.021-0.137,0.021
			c-0.159,0-0.31-0.094-0.368-0.252L175.209,21.025z M174.914,20.232l-0.583-1.548l-0.583,1.548H174.914z"/>
		<path fill="#262626" d="M177.657,17.172c0.223,0,0.403,0.18,0.403,0.396v4.249c0,0.216-0.18,0.396-0.403,0.396
			c-0.216,0-0.396-0.18-0.396-0.396v-4.249C177.261,17.353,177.441,17.172,177.657,17.172z"/>
		<path fill="#262626" d="M179.788,17.712c0,0.216-0.166,0.396-0.389,0.396c-0.216,0-0.389-0.18-0.389-0.396v-0.151
			c0-0.216,0.172-0.389,0.389-0.389c0.223,0,0.389,0.173,0.389,0.389V17.712z M179.788,19.016v2.809
			c0,0.216-0.166,0.389-0.389,0.389c-0.216,0-0.389-0.173-0.389-0.389v-2.809c0-0.23,0.172-0.396,0.389-0.396
			C179.622,18.62,179.788,18.785,179.788,19.016z"/>
		<path fill="#262626" d="M180.774,20.42c0-1.001,0.835-1.8,1.829-1.808c0.432,0,0.835,0.158,1.145,0.396
			c0.166,0.129,0.194,0.374,0.079,0.532c-0.144,0.173-0.375,0.202-0.54,0.072c-0.187-0.137-0.417-0.23-0.684-0.23
			c-0.583,0-1.065,0.482-1.065,1.037s0.482,1.03,1.065,1.03c0.259,0,0.497-0.094,0.684-0.23c0.158-0.123,0.396-0.094,0.54,0.079
			c0.115,0.158,0.086,0.389-0.079,0.533c-0.31,0.223-0.713,0.382-1.145,0.382C181.609,22.213,180.774,21.406,180.774,20.42z"/>
		<path fill="#262626" d="M184.885,20.413c0.007-0.979,0.771-1.8,1.757-1.8c0.937,0,1.678,0.699,1.736,1.671
			c0,0.007,0,0.021,0,0.036c0,0.015,0,0.051-0.007,0.065c-0.022,0.173-0.173,0.288-0.375,0.288h-2.29
			c0.036,0.166,0.115,0.353,0.245,0.476c0.151,0.173,0.439,0.302,0.691,0.324c0.259,0.021,0.569-0.043,0.749-0.18
			c0.151-0.158,0.446-0.137,0.54-0.021c0.094,0.101,0.166,0.316,0,0.468c-0.353,0.324-0.778,0.475-1.289,0.475
			C185.656,22.206,184.893,21.392,184.885,20.413z M185.67,20.06h2.038c-0.072-0.288-0.439-0.712-1.066-0.763
			C186.03,19.325,185.728,19.765,185.67,20.06z"/>
	</g>
	<rect x="252.365" y="10.7" fill="none" stroke="#262626" stroke-miterlimit="10" width="34" height="19"/>
	<g>
		<path fill="#262626" d="M263.451,21.817v-4.249c0-0.223,0.18-0.396,0.396-0.396c0.007,0,0.007,0,0.021,0c0,0,0,0,0.007,0h0.994
			c0.756,0,1.368,0.612,1.368,1.368c0,0.31-0.101,0.59-0.274,0.821c0.432,0.273,0.728,0.756,0.728,1.303
			c0,0.857-0.691,1.548-1.541,1.548h-1.274c-0.007,0-0.007-0.007-0.007-0.007c-0.014,0-0.014,0.007-0.021,0.007
			C263.631,22.213,263.451,22.033,263.451,21.817z M264.25,19.124h0.619c0.317,0,0.569-0.266,0.569-0.583s-0.252-0.569-0.569-0.569
			h-0.619V19.124z M264.25,21.414h0.9c0.411-0.007,0.742-0.332,0.742-0.749c0-0.41-0.331-0.734-0.742-0.742h-0.9V21.414z"/>
		<path fill="#262626" d="M267.979,21.687c-0.31-0.316-0.497-0.763-0.497-1.267c0-0.49,0.188-0.915,0.497-1.26
			c0.324-0.338,0.742-0.547,1.238-0.547c0.475,0,0.907,0.209,1.203,0.547c0.324,0.346,0.504,0.771,0.504,1.26
			c0,0.504-0.18,0.951-0.504,1.267c-0.295,0.338-0.728,0.547-1.203,0.547C268.721,22.234,268.304,22.025,267.979,21.687z
			 M268.268,20.42c0,0.31,0.094,0.562,0.259,0.763c0.18,0.173,0.417,0.267,0.691,0.267c0.252,0,0.482-0.094,0.663-0.267
			c0.18-0.202,0.281-0.454,0.281-0.763c0-0.295-0.101-0.555-0.281-0.749c-0.18-0.158-0.411-0.273-0.663-0.273
			c-0.273,0-0.511,0.115-0.691,0.273C268.361,19.865,268.268,20.125,268.268,20.42z"/>
		<path fill="#262626" d="M272.148,20.42c0-0.007,0-0.007,0-0.007v-2.851c0-0.209,0.173-0.389,0.389-0.389
			c0.223,0,0.396,0.18,0.396,0.389v1.354c0.266-0.188,0.612-0.303,0.965-0.303c0.972,0,1.75,0.821,1.75,1.808
			c0,0.972-0.777,1.793-1.75,1.793c-0.36,0-0.706-0.123-0.979-0.31c-0.036,0.173-0.187,0.31-0.381,0.31
			c-0.216,0-0.389-0.18-0.389-0.389V20.42z M272.933,20.42c0,0.273,0.108,0.533,0.288,0.713c0.18,0.188,0.411,0.295,0.677,0.295
			c0.259,0,0.497-0.107,0.677-0.295c0.18-0.18,0.288-0.439,0.288-0.713c0-0.288-0.108-0.547-0.288-0.728
			c-0.18-0.187-0.417-0.295-0.677-0.295c-0.266,0-0.497,0.108-0.677,0.295C273.041,19.873,272.933,20.132,272.933,20.42z"/>
	</g>
	<g>
		<path fill="#262626" d="M214.615,71.935v-4.249c0-0.223,0.173-0.396,0.396-0.396c0.223,0,0.403,0.172,0.403,0.396v1.729h1.865
			v-1.729c0-0.223,0.173-0.396,0.396-0.396s0.403,0.172,0.403,0.396v4.249c0,0.223-0.18,0.396-0.403,0.396s-0.396-0.173-0.396-0.396
			v-1.728h-1.865v1.728c0,0.223-0.18,0.396-0.403,0.396C214.788,72.331,214.615,72.158,214.615,71.935z"/>
		<path fill="#262626" d="M219.389,70.531c0.007-0.979,0.771-1.8,1.757-1.8c0.936,0,1.677,0.698,1.735,1.67c0,0.007,0,0.021,0,0.036
			c0,0.014,0,0.05-0.007,0.064c-0.021,0.173-0.173,0.288-0.374,0.288h-2.29c0.036,0.166,0.115,0.353,0.245,0.475
			c0.151,0.173,0.438,0.303,0.691,0.324c0.259,0.021,0.568-0.043,0.749-0.18c0.151-0.158,0.447-0.137,0.54-0.022
			c0.094,0.101,0.166,0.317,0,0.468c-0.353,0.324-0.777,0.475-1.288,0.475C220.159,72.324,219.396,71.51,219.389,70.531z
			 M220.174,70.178h2.037c-0.072-0.288-0.439-0.713-1.065-0.763C220.534,69.443,220.231,69.883,220.174,70.178z"/>
		<path fill="#262626" d="M224.472,67.291c0.223,0,0.403,0.18,0.403,0.396v4.249c0,0.216-0.18,0.396-0.403,0.396
			c-0.216,0-0.396-0.18-0.396-0.396v-4.249C224.076,67.47,224.256,67.291,224.472,67.291z"/>
		<path fill="#262626" d="M226.265,67.291c0.223,0,0.403,0.18,0.403,0.396v4.249c0,0.216-0.18,0.396-0.403,0.396
			c-0.216,0-0.396-0.18-0.396-0.396v-4.249C225.869,67.47,226.048,67.291,226.265,67.291z"/>
		<path fill="#262626" d="M227.942,71.805c-0.309-0.317-0.497-0.764-0.497-1.268c0-0.49,0.188-0.915,0.497-1.26
			c0.324-0.338,0.742-0.547,1.239-0.547c0.475,0,0.907,0.209,1.203,0.547c0.324,0.345,0.504,0.77,0.504,1.26
			c0,0.504-0.18,0.951-0.504,1.268c-0.295,0.338-0.728,0.547-1.203,0.547C228.684,72.353,228.266,72.144,227.942,71.805z
			 M228.23,70.538c0,0.31,0.094,0.562,0.259,0.764c0.18,0.172,0.418,0.266,0.691,0.266c0.252,0,0.482-0.094,0.662-0.266
			c0.18-0.202,0.281-0.454,0.281-0.764c0-0.295-0.101-0.554-0.281-0.749c-0.18-0.159-0.41-0.274-0.662-0.274
			c-0.273,0-0.511,0.115-0.691,0.274C228.324,69.983,228.23,70.242,228.23,70.538z"/>
		<path fill="#262626" d="M232.111,70.595v-2.909c0-0.216,0.18-0.396,0.396-0.396c0.215,0,0.388,0.18,0.388,0.396v2.909
			c0,0.223-0.173,0.396-0.388,0.396C232.291,70.991,232.111,70.818,232.111,70.595z M232.507,72.331
			c-0.216,0-0.396-0.173-0.396-0.396v-0.144c0-0.216,0.18-0.396,0.396-0.396c0.215,0,0.388,0.18,0.388,0.396v0.144
			C232.896,72.158,232.723,72.331,232.507,72.331z"/>
	</g>
	<line fill="none" stroke="#262626" stroke-width="2" stroke-miterlimit="10" x1="179.865" y1="79.2" x2="264.865" y2="79.2"/>
	<polygon fill="#262626" points="259.865,81.513 259.865,75.513 268.865,78.513 	"/>
</g>
</svg>
